<?xml version="1.0" encoding="UTF-8" standalone="no" ?>
<!DOCTYPE svg PUBLIC "-//W3C//DTD SVG 1.1//EN" "http://www.w3.org/Graphics/SVG/1.1/DTD/svg11.dtd">
<svg xmlns="http://www.w3.org/2000/svg" xmlns:xlink="http://www.w3.org/1999/xlink" version="1.1" width="297mm" height="210mm" viewBox="0 0 841.88976 595.27559" xml:space="preserve">
<desc>Created with Fabric.js 5.3.0</desc>
<defs>
</defs>
<g transform="matrix(7.9042157772 0 0 5.6123232524 420.6420975 298.8588364244)" id="Y1rlw2PlV1J54xsuLZo-b"  >
<path style="stroke: rgb(86,185,64); stroke-width: 0; stroke-dasharray: none; stroke-linecap: butt; stroke-dashoffset: 0; stroke-linejoin: miter; stroke-miterlimit: 4; fill: rgb(18,44,87); fill-rule: nonzero; opacity: 1;"  transform=" translate(0.000005, 0.000005)" d="M -53.24469 -53.24469 L 53.244679999999995 -53.24469 L 53.244679999999995 53.244679999999995 L -53.24469 53.244679999999995 z" stroke-linecap="round" />
</g>
<g transform="matrix(1 0 0 1 582.4692889743 157.6063421184)" id="wXgAxOfcRkvkU2MOwHD0j"  >
<path style="stroke: rgb(0,0,0); stroke-width: 1; stroke-dasharray: none; stroke-linecap: butt; stroke-dashoffset: 0; stroke-linejoin: miter; stroke-miterlimit: 4; fill: rgb(63,62,75); fill-rule: nonzero; opacity: 1;"  transform=" translate(-0.000005, -0.000005)" d="M -47.31619 -12.23404 L 2.1353500000000025 -93.08510000000001 L 47.3162 -19.64500000000001 L 9.018329999999999 93.08510999999999 z" stroke-linecap="round" />
</g>
<g transform="matrix(1 0 0 1 659.5727167647 192.8919944702)" id="JcuP-pIYAHIeeWQYXQDlX"  >
<path style="stroke: rgb(0,0,0); stroke-width: 1; stroke-dasharray: none; stroke-linecap: butt; stroke-dashoffset: 0; stroke-linejoin: miter; stroke-miterlimit: 4; fill: rgb(63,62,75); fill-rule: nonzero; opacity: 1;"  transform=" translate(-0.000005, 0)" d="M 74.46809 -21.98778 L 11.702130000000004 -132.62608 L -74.46807999999999 33.33136999999999 L -17.021269999999987 132.62608 L 46.808520000000016 132.62608 z" stroke-linecap="round" />
</g>
<g transform="matrix(1 0 0 1 421.44488 181.1711987809)" id="bjAUTydhz6rKE8JgAFCCP"  >
<path style="stroke: rgb(0,0,0); stroke-width: 1; stroke-dasharray: none; stroke-linecap: butt; stroke-dashoffset: 0; stroke-linejoin: miter; stroke-miterlimit: 4; fill: rgb(63,62,75); fill-rule: nonzero; opacity: 1;"  transform=" translate(-0.000005, 0.000005)" d="M -59.63061 -17.88252 L 13.20982 -92.92451 L 59.63062 -8.139330000000001 L 13.20982 92.9245 z" stroke-linecap="round" />
</g>
<g transform="matrix(1 0 0 1 420.94488 0.5324468605)" id="qzYKwQnCh23Lx3Hnmd9II"  >
<path style="stroke: rgb(0,0,0); stroke-width: 1; stroke-dasharray: none; stroke-linecap: butt; stroke-dashoffset: 0; stroke-linejoin: miter; stroke-miterlimit: 4; fill: rgb(255,255,255); fill-opacity: 0; fill-rule: nonzero; opacity: 1;"  transform=" translate(0, 0)" d="M 0 0" stroke-linecap="round" />
</g>
<g transform="matrix(1 0 0 1 335.1046316583 206.8605301658)" id="Y5aN1YHPtcuHd_iFWLnZP"  >
<path style="stroke: rgb(0,0,0); stroke-width: 1; stroke-dasharray: none; stroke-linecap: butt; stroke-dashoffset: 0; stroke-linejoin: miter; stroke-miterlimit: 4; fill: rgb(63,62,75); fill-rule: nonzero; opacity: 1;"  transform=" translate(0, -0.000005)" d="M -98.93617 -18.70646 L -31.91489 -157.00432999999998 L 98.93616999999999 62.14461000000003 L 60.63829999999999 148.31482000000003 L 19.14893999999999 157.00434 z" stroke-linecap="round" />
</g>
<g transform="matrix(1 0 0 1 112.2331300624 78.1083958689)" id="howlto6z8vcZWrRoCEV9S"  >
<path style="stroke: rgb(0,0,0); stroke-width: 1; stroke-dasharray: none; stroke-linecap: butt; stroke-dashoffset: 0; stroke-linejoin: miter; stroke-miterlimit: 4; fill: rgb(255,255,255); fill-opacity: 0; fill-rule: nonzero; opacity: 1;"  transform=" translate(0, 0)" d="M 0 0" stroke-linecap="round" />
</g>
<g transform="matrix(1 0 0 1 803.9805904856 243.7804965053)" id="uVuc819GCKlt2K7bF7c8B"  >
<path style="stroke: rgb(0,0,0); stroke-width: 1; stroke-dasharray: none; stroke-linecap: butt; stroke-dashoffset: 0; stroke-linejoin: miter; stroke-miterlimit: 4; fill: rgb(63,62,75); fill-rule: nonzero; opacity: 1;"  transform=" translate(-0.000015, 0)" d="M -18.40196 -86.17415 L 23.67724 -166.1721 L 37.12457 -130.32309 L 37.519 166.17209999999997 L -37.51897 63.50478999999997 z" stroke-linecap="round" />
</g>
<g transform="matrix(1 0 0 1 5.3486596765 233.3490514961)" id="qqmeY8G6mWV_8EBwnwcUn"  >
<path style="stroke: rgb(0,0,0); stroke-width: 1; stroke-dasharray: none; stroke-linecap: butt; stroke-dashoffset: 0; stroke-linejoin: miter; stroke-miterlimit: 4; fill: rgb(255,255,255); fill-opacity: 0; fill-rule: nonzero; opacity: 1;"  transform=" translate(0, 0)" d="M 0 0" stroke-linecap="round" />
</g>
<g transform="matrix(0.655731725 0 0 0.655731725 99.292691893 152.6503877869)" id="L6yxpULsVqdhrsQ1fZCF_"  >
<path style="stroke: rgb(243,183,208); stroke-width: 0; stroke-dasharray: none; stroke-linecap: butt; stroke-dashoffset: 0; stroke-linejoin: miter; stroke-miterlimit: 4; fill: rgb(182,193,195); fill-rule: nonzero; opacity: 1;"  transform=" translate(0, 0)" d="M 0 -53.24469 C 29.39107 -53.24469 53.24469 -29.39107 53.24469 0 C 53.24469 29.39107 29.39107 53.24469 0 53.24469 C -29.39107 53.24469 -53.24469 29.39107 -53.24469 0 C -53.24469 -29.39107 -29.39107 -53.24469 0 -53.24469 z" stroke-linecap="round" />
</g>
<g transform="matrix(1 0 0 1 420.44488 241.4166352494)" id="djzEfvnzdfyZldQgb4-Yk"  >
<path style="stroke: rgb(0,0,0); stroke-width: 1; stroke-dasharray: none; stroke-linecap: butt; stroke-dashoffset: 0; stroke-linejoin: miter; stroke-miterlimit: 4; fill: rgb(90,112,95); fill-rule: nonzero; opacity: 1;"  transform=" translate(0, 0)" d="M -420.16027 168.03596 L -256.4158 -168.03596 L -229.50848 -127.6411 L -42.58600999999999 152.97800999999998 L 86.13739000000001 -144.31813 L 253.15867 134.40527000000003 L 342.52037 -158.46149999999994 L 420.16027 168.03596000000005" stroke-linecap="round" />
</g>
<g transform="matrix(-0.2134110369 0 0 0.2134110369 56.4023146196 84.1994211897)" id="oly64BFqUbqtDTogaaTOB"  >
<path style="stroke: rgb(0,0,0); stroke-width: 1; stroke-dasharray: none; stroke-linecap: butt; stroke-dashoffset: 0; stroke-linejoin: miter; stroke-miterlimit: 4; fill: rgb(255,255,255); fill-rule: nonzero; opacity: 1;"  transform=" translate(-0.000005, 0.000015)" d="M -31.41436 -3.55381 L -24.686839999999997 -5.4048300000000005 L -24.686839999999997 -5.4048300000000005 C -15.588629999999997 -7.90812 -8.352699999999995 -14.808200000000001 -5.420149999999996 -23.77727 L -4.792009999999996 -25.698400000000003 L 0.9681900000000043 -19.4065 L 0.9681900000000043 -19.4065 C 6.945510000000004 -12.87744 14.644230000000004 -8.167980000000002 23.179020000000005 -5.819710000000001 L 31.414370000000005 -3.5538300000000005 L 14.918520000000004 4.5088099999999995 L 14.918520000000004 4.5088099999999995 C 11.757450000000004 6.053839999999999 8.983190000000004 8.28824 6.800030000000005 11.04747 L -4.792029999999995 25.69837 L -4.792029999999995 25.69837 L -4.792029999999995 25.69837 C -8.255629999999995 16.209319999999998 -14.586429999999995 8.033350000000002 -22.906269999999992 2.3045800000000014 z" stroke-linecap="round" />
</g>
<g transform="matrix(1 0 0 1 49.591436893 197.3142774946)" id="niVbhQnhVMJY-0yuxLKb9"  >
<path style="stroke: rgb(0,0,0); stroke-width: 1; stroke-dasharray: none; stroke-linecap: butt; stroke-dashoffset: 0; stroke-linejoin: miter; stroke-miterlimit: 4; fill: rgb(63,62,75); fill-rule: nonzero; opacity: 1;"  transform=" translate(-0.000005, -0.000005)" d="M -49.20125 -24.92181 L -12.500869999999999 -169.60266 L 49.20126 12.312230000000028 L -23.13917 160.36345000000003 L -49.20125 169.60267000000002 z" stroke-linecap="round" />
</g>
<g transform="matrix(1.0107844733 0 0 1.6218908598 429.0698121956 364.364863578)" id="pa-c1YsM2-y-oWsx30esC"  >
<path style="stroke:white;stroke-width: 0; stroke-dasharray: none; stroke-linecap: butt; stroke-dashoffset: 0; stroke-linejoin: miter; stroke-miterlimit: 4; stroke: white;fill-rule: nonzero; opacity: 1;filter: url(#SVGID_0);"  transform=" translate(-0.000005, 5.98e-7)" d="M -408.62849 48.47732 C -347.33655 14.722339999999996 -246.22664 33.78693 -167.31869 40.9161 L -167.31869 40.9161 C -130.92597 44.20411 -93.91879 38.43489 -64.29633 24.85548 L 68.24765000000001 -32.10117 L 68.24765000000001 -32.10117 C 115.5079 -52.40979 177.30601000000001 -53.94793 227.01449000000002 -36.05283 L 408.62850000000003 29.32839" stroke-linecap="round" />
<filter id="SVGID_0" y="-22.92404775%" height="145.8480955%" x="-20.34689211%" width="140.69378422%" >
	<feGaussianBlur in="SourceAlpha" stdDeviation="1.4175"></feGaussianBlur>
	<feOffset dx="0" dy="0" result="oBlur" ></feOffset>
	<feFlood flood-color="rgb(0,0,0)" flood-opacity="1"/>
	<feComposite in2="oBlur" operator="in" />
	<feMerge>
		<feMergeNode></feMergeNode>
		<feMergeNode in="SourceGraphic"></feMergeNode>
	</feMerge>
</filter>
<path style="stroke: rgb(0,0,0); stroke-width: 0; stroke-dasharray: none; stroke-linecap: butt; stroke-dashoffset: 0; stroke-linejoin: miter; stroke-miterlimit: 4; fill: rgb(25,114,75); fill-rule: nonzero; opacity: 1;"  transform=" translate(-0.000005, 5.98e-7)" d="M -408.62849 48.47732 C -347.33655 14.722339999999996 -246.22664 33.78693 -167.31869 40.9161 L -167.31869 40.9161 C -130.92597 44.20411 -93.91879 38.43489 -64.29633 24.85548 L 68.24765000000001 -32.10117 L 68.24765000000001 -32.10117 C 115.5079 -52.40979 177.30601000000001 -53.94793 227.01449000000002 -36.05283 L 408.62850000000003 29.32839" stroke-linecap="round" />
</g>
<g transform="matrix(1 0 0 1 420.94488 383.7080801684)" id="BvrLyQ_CCDQ9M9R9_9b1V"  >
<path style="stroke:white;stroke-width: 0.28346; stroke-dasharray: none; stroke-linecap: butt; stroke-dashoffset: 0; stroke-linejoin: miter; stroke-miterlimit: 4; stroke: white;fill-rule: nonzero; opacity: 1;filter: url(#SVGID_1);"  transform=" translate(-0.000005, 0.0000012872)" d="M -420.41297 76.28106 L -205.77782999999997 -64.17302000000001 C -181.11576999999997 -80.31151000000001 -149.23855999999995 -80.31753 -124.57039999999996 -64.18835000000001 L 20.81563000000004 30.87173999999999 L 20.81563000000004 30.87173999999999 C 42.98771000000004 45.36886999999999 70.75012000000004 48.40518999999999 95.53162000000005 39.043289999999985 L 246.09750000000003 -17.837150000000015 L 246.09750000000003 -17.837150000000015 C 276.52661 -29.332590000000017 310.80454000000003 -23.289540000000017 335.46816 -2.081480000000015 L 420.41298 70.96190999999999" stroke-linecap="round" />
<filter id="SVGID_1" y="-21.85825941%" height="143.71651882%" x="-20.33716847%" width="140.67433694%" >
	<feGaussianBlur in="SourceAlpha" stdDeviation="1.4175"></feGaussianBlur>
	<feOffset dx="0" dy="0" result="oBlur" ></feOffset>
	<feFlood flood-color="rgb(0,0,0)" flood-opacity="1"/>
	<feComposite in2="oBlur" operator="in" />
	<feMerge>
		<feMergeNode></feMergeNode>
		<feMergeNode in="SourceGraphic"></feMergeNode>
	</feMerge>
</filter>
<path style="stroke: rgb(0,0,0); stroke-width: 0.28346; stroke-dasharray: none; stroke-linecap: butt; stroke-dashoffset: 0; stroke-linejoin: miter; stroke-miterlimit: 4; fill: rgb(82,138,78); fill-rule: nonzero; opacity: 1;"  transform=" translate(-0.000005, 0.0000012872)" d="M -420.41297 76.28106 L -205.77782999999997 -64.17302000000001 C -181.11576999999997 -80.31151000000001 -149.23855999999995 -80.31753 -124.57039999999996 -64.18835000000001 L 20.81563000000004 30.87173999999999 L 20.81563000000004 30.87173999999999 C 42.98771000000004 45.36886999999999 70.75012000000004 48.40518999999999 95.53162000000005 39.043289999999985 L 246.09750000000003 -17.837150000000015 L 246.09750000000003 -17.837150000000015 C 276.52661 -29.332590000000017 310.80454000000003 -23.289540000000017 335.46816 -2.081480000000015 L 420.41298 70.96190999999999" stroke-linecap="round" />
</g>
<g transform="matrix(1 0 0 1 159.4928604389 424.0194654648)" id="pQkmrvtyfjRdWsMfLQPHS"  >
<path style="stroke:white;stroke-width: 0; stroke-dasharray: none; stroke-linecap: butt; stroke-dashoffset: 0; stroke-linejoin: miter; stroke-miterlimit: 4; stroke: white;fill-rule: nonzero; opacity: 1;filter: url(#SVGID_2);"  transform=" translate(0.000005, 0.000005)" d="M -159.60268 -68.89382 L -47.27696999999999 -52.936370000000004 L -47.27696999999999 -52.936370000000004 C -1.4483099999999922 -46.425760000000004 41.90935 -28.144080000000002 78.56392000000001 0.12422999999999718 L 159.60267 62.62199 L -154.14421 68.89381 L -159.60268 68.89381 z" stroke-linecap="round" />
<filter id="SVGID_2" y="-22.05751416%" height="144.11502832%" x="-20.88814301%" width="141.77628602%" >
	<feGaussianBlur in="SourceAlpha" stdDeviation="1.4175"></feGaussianBlur>
	<feOffset dx="0" dy="0" result="oBlur" ></feOffset>
	<feFlood flood-color="rgb(0,0,0)" flood-opacity="1"/>
	<feComposite in2="oBlur" operator="in" />
	<feMerge>
		<feMergeNode></feMergeNode>
		<feMergeNode in="SourceGraphic"></feMergeNode>
	</feMerge>
</filter>
<path style="stroke: rgb(0,0,0); stroke-width: 0; stroke-dasharray: none; stroke-linecap: butt; stroke-dashoffset: 0; stroke-linejoin: miter; stroke-miterlimit: 4; fill: rgb(47,199,85); fill-rule: nonzero; opacity: 1;"  transform=" translate(0.000005, 0.000005)" d="M -159.60268 -68.89382 L -47.27696999999999 -52.936370000000004 L -47.27696999999999 -52.936370000000004 C -1.4483099999999922 -46.425760000000004 41.90935 -28.144080000000002 78.56392000000001 0.12422999999999718 L 159.60267 62.62199 L -154.14421 68.89381 L -159.60268 68.89381 z" stroke-linecap="round" />
</g>
<g transform="matrix(1 0 0 -1 420.94488 460.1308737301)" id="GT9zIRXui9xFQyylEKZQj"  >
<path style="stroke:white;stroke-width: 0; stroke-dasharray: none; stroke-linecap: butt; stroke-dashoffset: 0; stroke-linejoin: miter; stroke-miterlimit: 4; stroke: white;fill-rule: nonzero; opacity: 1;filter: url(#SVGID_3);"  transform=" translate(0.000025, -7.616e-7)" d="M -420.5547 4.68219 L -397.81171 29.55334 L -397.81171 29.55334 C -372.47497 57.26094 -329.72496 59.8696 -301.20725 35.44827 L -301.20725 35.44827 L -301.20725 35.44827 C -262.50717 2.3072099999999978 -205.17861 3.1941399999999973 -167.52226 37.516510000000004 L -156.09987999999998 47.92759 L -156.09987999999998 47.92759 C -142.69248 60.147940000000006 -128.09506 70.995 -112.52609999999999 80.30643 L -51.94600999999999 116.53795000000001 L -51.94600999999999 116.53795000000001 C 1.0862800000000163 148.25531 69.23099000000002 137.35959 109.72952000000002 90.68750000000001 L 125.19676000000003 72.86245000000001 L 125.19676000000003 72.86245000000001 C 177.55087000000003 12.527540000000009 264.15812000000005 -4.615509999999986 335.54924000000005 31.22527000000001 L 419.90755000000007 73.57601000000001 L 420.55467000000004 -134.6128 L -420.5547199999999 -134.6128 z" stroke-linecap="round" />
<filter id="SVGID_3" y="-21.05302021%" height="142.10604042%" x="-20.33705485%" width="140.6741097%" >
	<feGaussianBlur in="SourceAlpha" stdDeviation="1.4175"></feGaussianBlur>
	<feOffset dx="0" dy="0" result="oBlur" ></feOffset>
	<feFlood flood-color="rgb(0,0,0)" flood-opacity="1"/>
	<feComposite in2="oBlur" operator="in" />
	<feMerge>
		<feMergeNode></feMergeNode>
		<feMergeNode in="SourceGraphic"></feMergeNode>
	</feMerge>
</filter>
<path style="stroke: rgb(0,0,0); stroke-width: 0; stroke-dasharray: none; stroke-linecap: butt; stroke-dashoffset: 0; stroke-linejoin: miter; stroke-miterlimit: 4; fill: rgb(5,160,59); fill-rule: nonzero; opacity: 1;"  transform=" translate(0.000025, -7.616e-7)" d="M -420.5547 4.68219 L -397.81171 29.55334 L -397.81171 29.55334 C -372.47497 57.26094 -329.72496 59.8696 -301.20725 35.44827 L -301.20725 35.44827 L -301.20725 35.44827 C -262.50717 2.3072099999999978 -205.17861 3.1941399999999973 -167.52226 37.516510000000004 L -156.09987999999998 47.92759 L -156.09987999999998 47.92759 C -142.69248 60.147940000000006 -128.09506 70.995 -112.52609999999999 80.30643 L -51.94600999999999 116.53795000000001 L -51.94600999999999 116.53795000000001 C 1.0862800000000163 148.25531 69.23099000000002 137.35959 109.72952000000002 90.68750000000001 L 125.19676000000003 72.86245000000001 L 125.19676000000003 72.86245000000001 C 177.55087000000003 12.527540000000009 264.15812000000005 -4.615509999999986 335.54924000000005 31.22527000000001 L 419.90755000000007 73.57601000000001 L 420.55467000000004 -134.6128 L -420.5547199999999 -134.6128 z" stroke-linecap="round" />
</g>
<g transform="matrix(1 0 0 1 167.2062867159 101.3825503401)" id="z9-c897rMujIaVPlfY4wO"  >
<path style="stroke: rgb(0,0,0); stroke-width: 1; stroke-dasharray: none; stroke-linecap: butt; stroke-dashoffset: 0; stroke-linejoin: miter; stroke-miterlimit: 4; fill: rgb(255,255,255); fill-rule: nonzero; opacity: 1;"  transform=" translate(-0.000005, 0)" d="M -29.78723 28.00188 L -24.366190000000003 24.70798 L -24.366190000000003 24.70798 C -14.990490000000003 19.01117 -3.0636600000000023 19.73167 5.558069999999997 26.51571 L 7.446819999999997 28.00188 L 13.654849999999996 19.7245 L 13.654849999999996 19.7245 C 15.604279999999996 17.125249999999998 19.133629999999997 16.292089999999998 22.039669999999994 17.74511 L 29.787239999999994 21.6189 L -4.255310000000005 -28.001880000000003 z" stroke-linecap="round" />
</g>
<g transform="matrix(1 0 0 1 508.0573505457 124.1485077869)" id="ZC9jurgzKqpYf1JgP1b5M"  >
<path style="stroke: rgb(0,0,0); stroke-width: 1; stroke-dasharray: none; stroke-linecap: butt; stroke-dashoffset: 0; stroke-linejoin: miter; stroke-miterlimit: 4; fill: rgb(255,255,255); fill-rule: nonzero; opacity: 1;"  transform=" translate(-0.000005, 0)" d="M -26.59574 28.00188 L -21.1747 24.70798 L -21.1747 24.70798 C -11.799000000000001 19.01117 0.12782999999999944 19.73167 8.749559999999999 26.51571 L 10.638309999999999 28.00188 L 17.863149999999997 18.36875 L 17.863149999999997 18.36875 C 19.34227 16.39659 21.66361 15.235919999999998 24.128809999999998 15.235919999999998 L 26.59575 15.235919999999998 L -1.0638199999999998 -28.00188 z" stroke-linecap="round" />
</g>
<g transform="matrix(1 0 0 1 766.4616058648 137.9613366817)" id="cA1zb9HoX4VPpflmuVvfS"  >
<path style="stroke: rgb(0,0,0); stroke-width: 1; stroke-dasharray: none; stroke-linecap: butt; stroke-dashoffset: 0; stroke-linejoin: miter; stroke-miterlimit: 4; fill: rgb(255,255,255); fill-rule: nonzero; opacity: 1;"  transform=" translate(0.000005, 0)" d="M -18.61702 -2.84919 L -18.43096 -3.0569 L -18.43096 -3.0569 C -16.08522 -5.67555 -12.529059999999998 -6.85763 -9.082439999999998 -6.1643799999999995 C -5.635819999999999 -5.47113 -2.8132399999999986 -3.0060299999999995 -1.662399999999998 0.3159200000000002 L 18.61701 58.85294 L 9.79612 -2.8090500000000063 L 9.79612 -2.8090500000000063 C 9.76798 -3.0057700000000063 9.59257 -3.1472700000000065 9.39436 -3.1331600000000064 C 9.196140000000002 -3.1190500000000063 9.04254 -2.9541400000000064 9.04254 -2.755420000000006 L 9.04254 2.469959999999994 L -2.6595899999999997 -58.852940000000004 z" stroke-linecap="round" />
</g>
<g transform="matrix(-0.2134110369 0 0 0.2134110369 177.8726040716 27.2116124946)" id="KSk9kYKM5s5-URAFdk4tQ"  >
<path style="stroke: rgb(0,0,0); stroke-width: 1; stroke-dasharray: none; stroke-linecap: butt; stroke-dashoffset: 0; stroke-linejoin: miter; stroke-miterlimit: 4; fill: rgb(255,255,255); fill-rule: nonzero; opacity: 1;"  transform=" translate(-0.000005, 0.000015)" d="M -31.41436 -3.55381 L -24.686839999999997 -5.4048300000000005 L -24.686839999999997 -5.4048300000000005 C -15.588629999999997 -7.90812 -8.352699999999995 -14.808200000000001 -5.420149999999996 -23.77727 L -4.792009999999996 -25.698400000000003 L 0.9681900000000043 -19.4065 L 0.9681900000000043 -19.4065 C 6.945510000000004 -12.87744 14.644230000000004 -8.167980000000002 23.179020000000005 -5.819710000000001 L 31.414370000000005 -3.5538300000000005 L 14.918520000000004 4.5088099999999995 L 14.918520000000004 4.5088099999999995 C 11.757450000000004 6.053839999999999 8.983190000000004 8.28824 6.800030000000005 11.04747 L -4.792029999999995 25.69837 L -4.792029999999995 25.69837 L -4.792029999999995 25.69837 C -8.255629999999995 16.209319999999998 -14.586429999999995 8.033350000000002 -22.906269999999992 2.3045800000000014 z" stroke-linecap="round" />
</g>
<g transform="matrix(-0.2134110369 0 0 0.2134110369 382.2546265435 106.9735748481)" id="Ej_LjVDa7uA1bRqeIDn1v"  >
<path style="stroke: rgb(0,0,0); stroke-width: 1; stroke-dasharray: none; stroke-linecap: butt; stroke-dashoffset: 0; stroke-linejoin: miter; stroke-miterlimit: 4; fill: rgb(255,255,255); fill-rule: nonzero; opacity: 1;"  transform=" translate(-0.000005, 0.000015)" d="M -31.41436 -3.55381 L -24.686839999999997 -5.4048300000000005 L -24.686839999999997 -5.4048300000000005 C -15.588629999999997 -7.90812 -8.352699999999995 -14.808200000000001 -5.420149999999996 -23.77727 L -4.792009999999996 -25.698400000000003 L 0.9681900000000043 -19.4065 L 0.9681900000000043 -19.4065 C 6.945510000000004 -12.87744 14.644230000000004 -8.167980000000002 23.179020000000005 -5.819710000000001 L 31.414370000000005 -3.5538300000000005 L 14.918520000000004 4.5088099999999995 L 14.918520000000004 4.5088099999999995 C 11.757450000000004 6.053839999999999 8.983190000000004 8.28824 6.800030000000005 11.04747 L -4.792029999999995 25.69837 L -4.792029999999995 25.69837 L -4.792029999999995 25.69837 C -8.255629999999995 16.209319999999998 -14.586429999999995 8.033350000000002 -22.906269999999992 2.3045800000000014 z" stroke-linecap="round" />
</g>
<g transform="matrix(-0.2134110369 0 0 0.2134110369 541.463971701 21.6205879866)" id="SFsKfa_qmuOkMWj7tsxuJ"  >
<path style="stroke: rgb(0,0,0); stroke-width: 1; stroke-dasharray: none; stroke-linecap: butt; stroke-dashoffset: 0; stroke-linejoin: miter; stroke-miterlimit: 4; fill: rgb(255,255,255); fill-rule: nonzero; opacity: 1;"  transform=" translate(-0.000005, 0.000015)" d="M -31.41436 -3.55381 L -24.686839999999997 -5.4048300000000005 L -24.686839999999997 -5.4048300000000005 C -15.588629999999997 -7.90812 -8.352699999999995 -14.808200000000001 -5.420149999999996 -23.77727 L -4.792009999999996 -25.698400000000003 L 0.9681900000000043 -19.4065 L 0.9681900000000043 -19.4065 C 6.945510000000004 -12.87744 14.644230000000004 -8.167980000000002 23.179020000000005 -5.819710000000001 L 31.414370000000005 -3.5538300000000005 L 14.918520000000004 4.5088099999999995 L 14.918520000000004 4.5088099999999995 C 11.757450000000004 6.053839999999999 8.983190000000004 8.28824 6.800030000000005 11.04747 L -4.792029999999995 25.69837 L -4.792029999999995 25.69837 L -4.792029999999995 25.69837 C -8.255629999999995 16.209319999999998 -14.586429999999995 8.033350000000002 -22.906269999999992 2.3045800000000014 z" stroke-linecap="round" />
</g>
<g transform="matrix(-0.2134110369 0 0 0.2134110369 255.0636153076 87.7466937809)" id="OQWbksBWugBM9DNCFUKXx"  >
<path style="stroke: rgb(0,0,0); stroke-width: 1; stroke-dasharray: none; stroke-linecap: butt; stroke-dashoffset: 0; stroke-linejoin: miter; stroke-miterlimit: 4; fill: rgb(255,255,255); fill-rule: nonzero; opacity: 1;"  transform=" translate(-0.000005, 0.000015)" d="M -31.41436 -3.55381 L -24.686839999999997 -5.4048300000000005 L -24.686839999999997 -5.4048300000000005 C -15.588629999999997 -7.90812 -8.352699999999995 -14.808200000000001 -5.420149999999996 -23.77727 L -4.792009999999996 -25.698400000000003 L 0.9681900000000043 -19.4065 L 0.9681900000000043 -19.4065 C 6.945510000000004 -12.87744 14.644230000000004 -8.167980000000002 23.179020000000005 -5.819710000000001 L 31.414370000000005 -3.5538300000000005 L 14.918520000000004 4.5088099999999995 L 14.918520000000004 4.5088099999999995 C 11.757450000000004 6.053839999999999 8.983190000000004 8.28824 6.800030000000005 11.04747 L -4.792029999999995 25.69837 L -4.792029999999995 25.69837 L -4.792029999999995 25.69837 C -8.255629999999995 16.209319999999998 -14.586429999999995 8.033350000000002 -22.906269999999992 2.3045800000000014 z" stroke-linecap="round" />
</g>
<g transform="matrix(-0.2134110369 0 0 0.2134110369 803.9805904856 77.1083965053)" id="Kl2NlOpVJdqC0OenJA5kU"  >
<path style="stroke: rgb(0,0,0); stroke-width: 1; stroke-dasharray: none; stroke-linecap: butt; stroke-dashoffset: 0; stroke-linejoin: miter; stroke-miterlimit: 4; fill: rgb(255,255,255); fill-rule: nonzero; opacity: 1;"  transform=" translate(-0.000005, 0.000015)" d="M -31.41436 -3.55381 L -24.686839999999997 -5.4048300000000005 L -24.686839999999997 -5.4048300000000005 C -15.588629999999997 -7.90812 -8.352699999999995 -14.808200000000001 -5.420149999999996 -23.77727 L -4.792009999999996 -25.698400000000003 L 0.9681900000000043 -19.4065 L 0.9681900000000043 -19.4065 C 6.945510000000004 -12.87744 14.644230000000004 -8.167980000000002 23.179020000000005 -5.819710000000001 L 31.414370000000005 -3.5538300000000005 L 14.918520000000004 4.5088099999999995 L 14.918520000000004 4.5088099999999995 C 11.757450000000004 6.053839999999999 8.983190000000004 8.28824 6.800030000000005 11.04747 L -4.792029999999995 25.69837 L -4.792029999999995 25.69837 L -4.792029999999995 25.69837 C -8.255629999999995 16.209319999999998 -14.586429999999995 8.033350000000002 -22.906269999999992 2.3045800000000014 z" stroke-linecap="round" />
</g>
<g transform="matrix(-0.2134110369 0 0 0.2134110369 474.7646172733 46.0295634787)" id="0rRIwf6B2G-TfeICkIjbr"  >
<path style="stroke: rgb(0,0,0); stroke-width: 1; stroke-dasharray: none; stroke-linecap: butt; stroke-dashoffset: 0; stroke-linejoin: miter; stroke-miterlimit: 4; fill: rgb(255,255,255); fill-rule: nonzero; opacity: 1;"  transform=" translate(-0.000005, 0.000015)" d="M -31.41436 -3.55381 L -24.686839999999997 -5.4048300000000005 L -24.686839999999997 -5.4048300000000005 C -15.588629999999997 -7.90812 -8.352699999999995 -14.808200000000001 -5.420149999999996 -23.77727 L -4.792009999999996 -25.698400000000003 L 0.9681900000000043 -19.4065 L 0.9681900000000043 -19.4065 C 6.945510000000004 -12.87744 14.644230000000004 -8.167980000000002 23.179020000000005 -5.819710000000001 L 31.414370000000005 -3.5538300000000005 L 14.918520000000004 4.5088099999999995 L 14.918520000000004 4.5088099999999995 C 11.757450000000004 6.053839999999999 8.983190000000004 8.28824 6.800030000000005 11.04747 L -4.792029999999995 25.69837 L -4.792029999999995 25.69837 L -4.792029999999995 25.69837 C -8.255629999999995 16.209319999999998 -14.586429999999995 8.033350000000002 -22.906269999999992 2.3045800000000014 z" stroke-linecap="round" />
</g>
<g transform="matrix(-0.2134110369 0 0 0.2134110369 16.0344740992 26.0295634787)" id="JC3Z_eKnZDxAwDgbFPzZa"  >
<path style="stroke: rgb(0,0,0); stroke-width: 1; stroke-dasharray: none; stroke-linecap: butt; stroke-dashoffset: 0; stroke-linejoin: miter; stroke-miterlimit: 4; fill: rgb(255,255,255); fill-rule: nonzero; opacity: 1;"  transform=" translate(-0.000005, 0.000015)" d="M -31.41436 -3.55381 L -24.686839999999997 -5.4048300000000005 L -24.686839999999997 -5.4048300000000005 C -15.588629999999997 -7.90812 -8.352699999999995 -14.808200000000001 -5.420149999999996 -23.77727 L -4.792009999999996 -25.698400000000003 L 0.9681900000000043 -19.4065 L 0.9681900000000043 -19.4065 C 6.945510000000004 -12.87744 14.644230000000004 -8.167980000000002 23.179020000000005 -5.819710000000001 L 31.414370000000005 -3.5538300000000005 L 14.918520000000004 4.5088099999999995 L 14.918520000000004 4.5088099999999995 C 11.757450000000004 6.053839999999999 8.983190000000004 8.28824 6.800030000000005 11.04747 L -4.792029999999995 25.69837 L -4.792029999999995 25.69837 L -4.792029999999995 25.69837 C -8.255629999999995 16.209319999999998 -14.586429999999995 8.033350000000002 -22.906269999999992 2.3045800000000014 z" stroke-linecap="round" />
</g>
<g transform="matrix(-0.2134110369 0 0 0.2134110369 785.5786208648 14.8475144628)" id="9WVRSuntNyj1I7CsnVzU-"  >
<path style="stroke: rgb(0,0,0); stroke-width: 1; stroke-dasharray: none; stroke-linecap: butt; stroke-dashoffset: 0; stroke-linejoin: miter; stroke-miterlimit: 4; fill: rgb(255,255,255); fill-rule: nonzero; opacity: 1;"  transform=" translate(-0.000005, 0.000015)" d="M -31.41436 -3.55381 L -24.686839999999997 -5.4048300000000005 L -24.686839999999997 -5.4048300000000005 C -15.588629999999997 -7.90812 -8.352699999999995 -14.808200000000001 -5.420149999999996 -23.77727 L -4.792009999999996 -25.698400000000003 L 0.9681900000000043 -19.4065 L 0.9681900000000043 -19.4065 C 6.945510000000004 -12.87744 14.644230000000004 -8.167980000000002 23.179020000000005 -5.819710000000001 L 31.414370000000005 -3.5538300000000005 L 14.918520000000004 4.5088099999999995 L 14.918520000000004 4.5088099999999995 C 11.757450000000004 6.053839999999999 8.983190000000004 8.28824 6.800030000000005 11.04747 L -4.792029999999995 25.69837 L -4.792029999999995 25.69837 L -4.792029999999995 25.69837 C -8.255629999999995 16.209319999999998 -14.586429999999995 8.033350000000002 -22.906269999999992 2.3045800000000014 z" stroke-linecap="round" />
</g>
<g transform="matrix(-0.2134110369 0 0 0.2134110369 686.8613681165 43.7651706578)" id="pmZOQKpWqBRCjYY6HVB7a"  >
<path style="stroke: rgb(0,0,0); stroke-width: 1; stroke-dasharray: none; stroke-linecap: butt; stroke-dashoffset: 0; stroke-linejoin: miter; stroke-miterlimit: 4; fill: rgb(255,255,255); fill-rule: nonzero; opacity: 1;"  transform=" translate(-0.000005, 0.000015)" d="M -31.41436 -3.55381 L -24.686839999999997 -5.4048300000000005 L -24.686839999999997 -5.4048300000000005 C -15.588629999999997 -7.90812 -8.352699999999995 -14.808200000000001 -5.420149999999996 -23.77727 L -4.792009999999996 -25.698400000000003 L 0.9681900000000043 -19.4065 L 0.9681900000000043 -19.4065 C 6.945510000000004 -12.87744 14.644230000000004 -8.167980000000002 23.179020000000005 -5.819710000000001 L 31.414370000000005 -3.5538300000000005 L 14.918520000000004 4.5088099999999995 L 14.918520000000004 4.5088099999999995 C 11.757450000000004 6.053839999999999 8.983190000000004 8.28824 6.800030000000005 11.04747 L -4.792029999999995 25.69837 L -4.792029999999995 25.69837 L -4.792029999999995 25.69837 C -8.255629999999995 16.209319999999998 -14.586429999999995 8.033350000000002 -22.906269999999992 2.3045800000000014 z" stroke-linecap="round" />
</g>
</svg>