<?xml version="1.0" encoding="UTF-8" standalone="no" ?>
<!DOCTYPE svg PUBLIC "-//W3C//DTD SVG 1.1//EN" "http://www.w3.org/Graphics/SVG/1.1/DTD/svg11.dtd">
<svg xmlns="http://www.w3.org/2000/svg" xmlns:xlink="http://www.w3.org/1999/xlink" version="1.1" width="640" height="640" viewBox="0 0 640 640" xml:space="preserve">
<desc>Created with Fabric.js 5.3.0</desc>
<defs>
</defs>
<g transform="matrix(1 0 0 1 372.4210162626 316.9031396291)" id="0WftiqeJax6NkNqr-EO8p"  >
<path style="stroke: rgb(0,0,0); stroke-width: 1; stroke-dasharray: none; stroke-linecap: butt; stroke-dashoffset: 0; stroke-linejoin: miter; stroke-miterlimit: 4; fill: rgb(255,255,255); fill-opacity: 0; fill-rule: nonzero; opacity: 1;"  transform=" translate(0, 0)" d="M 0 0" stroke-linecap="round" />
</g>
<g transform="matrix(1 0 0 1 287.6179014008 291.6528081781)" id="7I45mXoZSQni11b2HvglB"  >
<g style=""   >
		<g transform="matrix(1.4923129985 0 0 1.4923129985 -0.0128757823 0.0000013963)" id="PHt1cNqFM0Gnp9Ys0Q3uA"  >
<path style="stroke: rgb(0,0,0); stroke-width: 0; stroke-dasharray: none; stroke-linecap: butt; stroke-dashoffset: 0; stroke-linejoin: miter; stroke-miterlimit: 4; fill: rgb(137,0,0); fill-rule: nonzero; opacity: 1;"  transform=" translate(0.0000072788, 0)" d="M -48.77067 92.10865 C -72.57178 70.51894 -84.14225 38.54718 -79.6705 6.725610000000003 L -65.78174 -92.10865 L -10.836689999999997 -92.10865 L 41.24412 -19.119320000000002 L 41.24412 -19.119320000000002 C 55.6094 1.0130799999999986 66.51404 23.401759999999996 73.50868 47.1241 L 80.56189 71.04506 L 80.56189 71.04506 C 80.67009 71.41201000000001 80.61424000000001 71.80783000000001 80.40875000000001 72.13053000000001 C 80.20325000000001 72.45323 79.86820000000002 72.67124000000001 79.48992000000001 72.72840000000001 z" stroke-linecap="round" />
</g>
		<g transform="matrix(1.4923129985 0 0 1.4923129985 11.0686437195 -14.9348882643)" id="Pc1S64l56hViGbwYAOQOP"  >
<path style="stroke: rgb(0,0,0); stroke-width: 0; stroke-dasharray: none; stroke-linecap: butt; stroke-dashoffset: 0; stroke-linejoin: miter; stroke-miterlimit: 4; fill: rgb(0,0,0); fill-opacity: 0.3; fill-rule: nonzero; opacity: 1;"  transform=" translate(0.0000033001, 0.0000015355)" d="M 41.04188 52.15473 C 22.203989999999997 34.5572 15.64125 30.94916 13.482609999999998 5.261040000000001 C 12.826769999999998 -2.5435399999999984 -19.35294 -41.73795 -18.262420000000002 -49.493739999999995 L -73.20747 -82.10077 L -18.26242 -82.10077 L 33.81839 -9.111440000000002 L 33.81839 -9.111440000000002 C 48.18367 11.020959999999999 59.08831 33.409639999999996 66.08295000000001 57.13198 L 73.17869000000002 81.19721 L 73.17869000000002 81.19721 C 73.25329000000002 81.45023 73.18026000000002 81.72373 72.98945000000002 81.90588 C 72.79864000000002 82.08802999999999 72.52205000000002 82.14829 72.27276000000002 82.06201999999999 L 59.95290000000002 77.79865999999998 L 59.95290000000002 77.79865999999998 C 57.08751000000002 76.80706999999998 54.66214000000002 74.83929999999998 53.10133000000002 72.23975999999999 C 49.12171000000002 65.61169999999998 41.04186000000002 52.15472999999999 41.04186000000002 52.15472999999999 z" stroke-linecap="round" />
</g>
		<g transform="matrix(1.4923129985 0 0 1.4923129985 -93.4165328129 -0.0000027925)" id="Hhej_ns3WX7ssd2tJfvlq"  >
<path style="stroke: rgb(0,0,0); stroke-width: 0; stroke-dasharray: none; stroke-linecap: butt; stroke-dashoffset: 0; stroke-linejoin: miter; stroke-miterlimit: 4; fill: rgb(0,0,0); fill-opacity: 0.41; fill-rule: nonzero; opacity: 1;"  transform=" translate(0.0000060743, 0.000005)" d="M 13.85328 92.10864 C -9.846269999999999 70.512 -21.351960000000005 38.605239999999995 -16.890009999999997 6.853469999999987 L -2.983279999999997 -92.10865000000001 L 13.853280000000002 -87.14494 L -3.373619999999999 18.935609999999997 L -3.373619999999999 18.935609999999997 C -6.478329999999999 38.05395 -0.8439899999999989 57.556819999999995 11.977950000000002 72.07398 L 17.835680000000004 78.70618 z" stroke-linecap="round" />
</g>
</g>
</g>
<g transform="matrix(1 0 0 1 261.7902288125 387.1343072574)" id="uOSua9PiI-DDTTTfiOcqi"  >
<g style=""   >
		<g transform="matrix(1 0 0 1 0 0.25)" id="cbsZrzfijPeWxHedEVcc5"  >
<g style=""   >
		<g transform="matrix(1 0 0 1 0 0)" id="Qgo3WLrnVCHHfGYnYlsUy"  >
<path style="stroke: rgb(0,0,0); stroke-width: 1; stroke-dasharray: none; stroke-linecap: butt; stroke-dashoffset: 0; stroke-linejoin: miter; stroke-miterlimit: 4; fill: rgb(47,24,24); fill-rule: nonzero; opacity: 1;"  transform=" translate(-12.4965385833, -88.0101)" d="M 3.97748 176.0202 L 21.10976 176.0202 L 22.6899 120.27368999999999 L 21.10976 68.29674999999999 L 24.462380000000003 30.057999999999986 C 25.235310000000002 21.24223999999999 25.163800000000002 12.372779999999985 24.248820000000002 3.570629999999987 L 23.877650000000003 -1.2878587085651816e-14 L 0.8523900000000033 -1.2878587085651816e-14 C -0.28352999999999673 11.854989999999988 -0.28444999999999676 23.794739999999987 0.8515300000000033 35.65636999999999 L 3.9774800000000035 68.29673999999999 L 2.5769200000000034 120.27367999999998 z" stroke-linecap="round" />
</g>
		<g transform="matrix(1 0 0 1 0.3680202359 80.2425491365)" id="jo3M-rz7rveS9sKfc-nDw"  >
<path style="stroke: rgb(0,0,0); stroke-width: 1; stroke-dasharray: none; stroke-linecap: butt; stroke-dashoffset: 0; stroke-linejoin: miter; stroke-miterlimit: 4; fill: rgb(255,255,255); fill-opacity: 0; fill-rule: nonzero; opacity: 1;"  transform=" translate(-0.000005, 0)" d="M -7.88043 0 L 7.880440000000001 0 z" stroke-linecap="round" />
</g>
</g>
</g>
		<g transform="matrix(1 0 0 1 -6.425458025 -2.3878856461)" id="YeaO1sT2TqEfROfvZdpEv"  >
<path style="stroke: rgb(0,0,0); stroke-width: 1; stroke-dasharray: none; stroke-linecap: butt; stroke-dashoffset: 0; stroke-linejoin: miter; stroke-miterlimit: 4; fill: rgb(255,255,255); fill-opacity: 0; fill-rule: nonzero; opacity: 1;"  transform=" translate(-0.000005, 0.000005)" d="M -1.63043 -82.33696 L 1.6304400000000001 82.33695 z" stroke-linecap="round" />
</g>
		<g transform="matrix(1 0 0 1 5.7646425496 -3.9055145622)" id="e-EJ_IzzNyUgnVsARYKz6"  >
<path style="stroke: rgb(0,0,0); stroke-width: 1; stroke-dasharray: none; stroke-linecap: butt; stroke-dashoffset: 0; stroke-linejoin: miter; stroke-miterlimit: 4; fill: rgb(255,255,255); fill-opacity: 0; fill-rule: nonzero; opacity: 1;"  transform=" translate(0.000005, 0.000005)" d="M -1.32054 -84.35459 L 1.32053 84.35458 z" stroke-linecap="round" />
</g>
</g>
</g>
<g transform="matrix(1 0 0 1 135.0150680393 332.2163387389)" id="kFhEDUICb3w18fn4H2XJG"  >
<g style=""   >
		<g transform="matrix(1 0 0 1 0 0)" id="UztG4eNkDGZw-66CqZkDN"  >
<path style="stroke: rgb(0,0,0); stroke-width: 1; stroke-dasharray: none; stroke-linecap: butt; stroke-dashoffset: 0; stroke-linejoin: miter; stroke-miterlimit: 4; fill: rgb(40,25,25); fill-rule: nonzero; opacity: 1;"  transform=" translate(-51.222105, -60.89945)" d="M 99.74232 34.2764 L 102.44421000000001 0 L 32.303280000000015 13.90384 C 28.475330000000014 14.662650000000001 24.769640000000017 15.94326 21.289960000000015 17.70984 L 21.066410000000015 17.82333 L 21.066400000000016 17.82333 L 19.515850000000015 20.982439999999997 C 18.162730000000014 23.739299999999997 17.450850000000013 26.766579999999998 17.433550000000015 29.83757 L 17.404160000000015 35.05282 L 1.4210854715202004e-14 116.93294999999999 L 22.892510000000016 121.79889999999999 L 33.56305000000002 97.98521999999998 C 39.01214000000002 85.82438999999998 42.25279000000002 72.79058999999998 43.13334000000002 59.49384999999998 L 44.170580000000015 43.83107999999998 C 44.28478000000001 42.10657999999998 45.69635000000002 40.754379999999976 47.42417000000002 40.71434999999998 L 76.32152000000002 40.04482999999998 C 82.94469000000002 39.891379999999984 89.48245000000003 38.51516999999998 95.60542000000002 35.985509999999984 z" stroke-linecap="round" />
</g>
		<g transform="matrix(-0.9120382287 0.0637759257 -0.0637759257 -0.9120382287 -39.1674172082 53.5262347254)" id="K-dWlnM3L0nctmIgn6FaP"  >
<path style="stroke: rgb(0,0,0); stroke-width: 1; stroke-dasharray: none; stroke-linecap: butt; stroke-dashoffset: 0; stroke-linejoin: miter; stroke-miterlimit: 4; fill: rgb(255,255,255); fill-opacity: 0; fill-rule: nonzero; opacity: 1;"  transform=" translate(0, 0)" d="M -13.00254 -3.26087 L 13.00254 3.26087 z" stroke-linecap="round" />
</g>
		<g transform="matrix(1 0 0 1 -28.3661317477 13.0816771843)" id="hRiYZu5yH_xlp2c4SX2Vt"  >
<path style="stroke: rgb(0,0,0); stroke-width: 1; stroke-dasharray: none; stroke-linecap: butt; stroke-dashoffset: 0; stroke-linejoin: miter; stroke-miterlimit: 4; fill: rgb(255,255,255); fill-opacity: 0; fill-rule: nonzero; opacity: 1;"  transform=" translate(-0.000005, 0)" d="M 10.80129 -40.44456 L -10.80128 40.44456 z" stroke-linecap="round" />
</g>
		<g transform="matrix(0.9975640503 -0.0697564737 0.0697564737 0.9975640503 14.6112380521 -35.9933151393)" id="P1ZpOCPtc2RUSPPo9TvaD"  >
<path style="stroke: rgb(0,0,0); stroke-width: 1; stroke-dasharray: none; stroke-linecap: butt; stroke-dashoffset: 0; stroke-linejoin: miter; stroke-miterlimit: 4; fill: rgb(255,255,255); fill-opacity: 0; fill-rule: nonzero; opacity: 1;"  transform=" translate(0.000005, 0.000005)" d="M -34.39348 7.63043 L 34.39347000000001 -7.630440000000001 z" stroke-linecap="round" />
</g>
</g>
</g>
<g transform="matrix(3.3335558113 0 0 2.9025732917 234.3482896667 114.9784199529)" id="jS4pfvHffcGSvtS_z8ChX"  >
<path style="stroke: rgb(232,221,254); stroke-width: 0; stroke-dasharray: none; stroke-linecap: butt; stroke-dashoffset: 0; stroke-linejoin: miter; stroke-miterlimit: 4; fill: rgb(246,231,229); fill-rule: nonzero; opacity: 1;"  transform=" translate(0.0000080975, 3.502e-7)" d="M -5.13025 -17.51206 C -2.36479 -17.51206 1.2805499999999999 -17.566760000000002 4.267619999999999 -15.418510000000001 C 6.700859999999999 -13.668560000000001 8.799039999999998 -9.948120000000001 8.799039999999998 -7.695400000000001 C 8.799039999999998 -5.452650000000001 15.79957 7.266859999999999 13.891659999999998 12.177079999999998 C 11.530589999999998 18.253549999999997 -0.8787300000000027 17.480369999999997 -3.6541700000000006 17.480369999999997 C -7.415030000000001 17.480369999999997 -13.34342 7.336069999999998 -14.012310000000001 -0.15739000000000303 C -14.053700000000001 -0.621070000000003 -13.97943 -3.431030000000003 -14.012310000000001 -3.866550000000003 C -14.157060000000001 -5.784080000000003 -14.22117 -7.3965400000000034 -14.22117 -8.421150000000003 C -14.22117 -13.439330000000002 -10.14844 -17.51206 -5.130260000000002 -17.51206 z" stroke-linecap="round" />
</g>
<g transform="matrix(0.9012968011 0 0 0.9349674353 227.9539535039 227.5279753665)" id="jONKM4lKjVJ0L6h3pH-rL"  >
<g style=""   >
		<g transform="matrix(1 0 0 1 0 0)" id="A4ElNkh9CAsYi6VmmPLMu"  >
<g style=""   >
		<g transform="matrix(1 0 0 1 0 0)" id="JUAiDEz76OPytrbt5lExR"  >
<g style=""   >
		<g transform="matrix(1 0 0 1 0 0)" id="oZ2guJ_tZbwf8eAC_voLd"  >
<g style=""   >
		<g transform="matrix(1 0 0 1 0 0.25)" id="gk9SXFUjsH3jI983gkBT2"  >
<g style=""   >
		<g transform="matrix(1.45 0 0 2.06 0 -0.2499912903)" id="4bjDd3TxPUso-kEi6ix7c"  >
<path style="stroke: rgb(0,0,0); stroke-width: 0; stroke-dasharray: none; stroke-linecap: butt; stroke-dashoffset: 0; stroke-linejoin: miter; stroke-miterlimit: 4; fill: rgb(22,0,0); fill-opacity: 0.92; fill-rule: nonzero; opacity: 1;"  transform=" translate(0.0000041472, -0.00001)" d="M -33.2637 5.36988 L -35.697 -31.28318 L -35.697 -31.28318 C -35.858270000000005 -33.712430000000005 -34.59991 -36.082280000000004 -32.21457 -37.84158 C -29.829230000000003 -39.60087 -26.524810000000002 -40.596270000000004 -23.069830000000003 -40.596270000000004 L 24.723599999999998 -40.596270000000004 L 24.723599999999998 -40.596270000000004 C 28.18809 -40.596270000000004 31.496049999999997 -39.58064 33.85297 -37.793330000000005 C 36.20989 -36.00602000000001 37.402789999999996 -33.608520000000006 37.14515 -31.176670000000005 L 33.27337 5.3698899999999945 L 41.1909 30.787749999999996 L 41.1909 30.787749999999996 C 41.93524 33.177319999999995 41.10114 35.67558999999999 38.9226 37.581669999999995 C 36.744060000000005 39.48775 33.45579 40.596289999999996 29.980310000000003 40.596289999999996 L -29.982049999999994 40.596289999999996 L -29.982049999999994 40.596289999999996 C -33.457499999999996 40.596289999999996 -36.74567999999999 39.48761 -38.923869999999994 37.58136 C -41.10204999999999 35.67512 -41.935509999999994 33.17673 -41.190349999999995 30.787309999999998 z" stroke-linecap="round" />
</g>
		<g transform="matrix(1 0 0 1 -23.4536069212 1.9623980902)" id="8l11GLqVS1XagN3VeLMLa"  >
<path style="stroke: rgb(0,0,0); stroke-width: 1; stroke-dasharray: none; stroke-linecap: butt; stroke-dashoffset: 0; stroke-linejoin: miter; stroke-miterlimit: 4; fill: rgb(255,255,255); fill-opacity: 0; fill-rule: nonzero; opacity: 1;"  transform=" translate(0, 0)" d="M 0 -81.41593 L 0 81.41593 z" stroke-linecap="round" />
</g>
		<g transform="matrix(1 0 0 1 5.9999329018 1.7123980902)" id="EwlMEXPRPWgPq2OtZsDoU"  >
<path style="stroke: rgb(0,0,0); stroke-width: 1; stroke-dasharray: none; stroke-linecap: butt; stroke-dashoffset: 0; stroke-linejoin: miter; stroke-miterlimit: 4; fill: rgb(255,255,255); fill-opacity: 0; fill-rule: nonzero; opacity: 1;"  transform=" translate(0, 0)" d="M -28.95354 -42.63803 L 28.95354 -81.66593 L 28.95354 81.66593" stroke-linecap="round" />
</g>
		<g transform="matrix(1 0 0 1 -39.8252883371 18.3340795062)" id="3zSYljROlfIxPKYUdEBBv"  >
<path style="stroke: rgb(0,0,0); stroke-width: 1; stroke-dasharray: none; stroke-linecap: butt; stroke-dashoffset: 0; stroke-linejoin: miter; stroke-miterlimit: 4; fill: rgb(255,255,255); fill-opacity: 0; fill-rule: nonzero; opacity: 1;"  transform=" translate(0, 0.000005)" d="M -8.40708 -65.04425 L 16.371679999999998 -59.25972 L -8.40708 -6.637180000000001 L 15.871679999999998 65.04424 L -16.371680000000005 49.24047" stroke-linecap="round" />
</g>
		<g transform="matrix(0.1284048777 0 0 0.1284048777 -17.2719751655 -31.7596810441)" id="3mFkE2jiv7OifZRxgyXc5"  >
<path style="stroke: rgb(0,0,0); stroke-width: 0; stroke-dasharray: none; stroke-linecap: butt; stroke-dashoffset: 0; stroke-linejoin: miter; stroke-miterlimit: 4; fill: rgb(135,128,128); fill-opacity: 0.85; fill-rule: nonzero; opacity: 1;"  transform=" translate(0, 0)" d="M 0 -44.24779 C 24.42478 -44.24779 44.24779 -24.424780000000002 44.24779 0 C 44.24779 24.42478 24.424780000000002 44.24779 0 44.24779 C -24.42478 44.24779 -44.24779 24.424780000000002 -44.24779 0 C -44.24779 -24.42478 -24.424780000000002 -44.24779 0 -44.24779 z" stroke-linecap="round" />
</g>
		<g transform="matrix(0.1284048777 0 0 0.1284048777 -17.2719748578 -5.9316233537)" id="vWNEbctpN_HLUIm1ruQWJ"  >
<path style="stroke: rgb(0,0,0); stroke-width: 0; stroke-dasharray: none; stroke-linecap: butt; stroke-dashoffset: 0; stroke-linejoin: miter; stroke-miterlimit: 4; fill: rgb(135,128,128); fill-opacity: 0.85; fill-rule: nonzero; opacity: 1;"  transform=" translate(0, 0)" d="M 0 -44.24779 C 24.42478 -44.24779 44.24779 -24.424780000000002 44.24779 0 C 44.24779 24.42478 24.424780000000002 44.24779 0 44.24779 C -24.42478 44.24779 -44.24779 24.424780000000002 -44.24779 0 C -44.24779 -24.42478 -24.424780000000002 -44.24779 0 -44.24779 z" stroke-linecap="round" />
</g>
		<g transform="matrix(0.1284048777 0 0 0.1284048777 -17.2719748578 20.9929321963)" id="BD7kxvDoXfyAX4DumIxr-"  >
<path style="stroke: rgb(0,0,0); stroke-width: 0; stroke-dasharray: none; stroke-linecap: butt; stroke-dashoffset: 0; stroke-linejoin: miter; stroke-miterlimit: 4; fill: rgb(135,128,128); fill-opacity: 0.85; fill-rule: nonzero; opacity: 1;"  transform=" translate(0, 0)" d="M 0 -44.24779 C 24.42478 -44.24779 44.24779 -24.424780000000002 44.24779 0 C 44.24779 24.42478 24.424780000000002 44.24779 0 44.24779 C -24.42478 44.24779 -44.24779 24.424780000000002 -44.24779 0 C -44.24779 -24.42478 -24.424780000000002 -44.24779 0 -44.24779 z" stroke-linecap="round" />
</g>
		<g transform="matrix(1 0 0 1 6.2499329018 -53.2657902009)" id="K3EAhOleU-aoxU7-Bg6Kb"  >
<path style="stroke: rgb(0,0,0); stroke-width: 1; stroke-dasharray: none; stroke-linecap: butt; stroke-dashoffset: 0; stroke-linejoin: miter; stroke-miterlimit: 4; fill: rgb(255,255,255); fill-opacity: 0; fill-rule: nonzero; opacity: 1;"  transform=" translate(0, 0)" d="M -29.20354 12.34016 L 23.640420000000002 27.187739999999998 L 29.203540000000004 -27.187740000000005" stroke-linecap="round" />
</g>
</g>
</g>
		<g transform="matrix(1 0 0 1 -40.3595502678 -65.1351116484)" id="qDCVVFsrmv-SGRD9lH0Aq"  >
<path style="stroke: rgb(0,0,0); stroke-width: 1; stroke-dasharray: none; stroke-linecap: butt; stroke-dashoffset: 0; stroke-linejoin: miter; stroke-miterlimit: 4; fill: rgb(255,255,255); fill-opacity: 0; fill-rule: nonzero; opacity: 1;"  transform=" translate(0, -0.000005)" d="M -7.83972 18.49322 L 7.83972 -18.493209999999998 z" stroke-linecap="round" />
</g>
		<g transform="matrix(1 0 0 1 48.1421918925 0.8747109194)" id="Q2xmobTgEOKQBFMG16-d2"  >
<path style="stroke: rgb(0,0,0); stroke-width: 1; stroke-dasharray: none; stroke-linecap: butt; stroke-dashoffset: 0; stroke-linejoin: miter; stroke-miterlimit: 4; fill: rgb(255,255,255); fill-opacity: 0; fill-rule: nonzero; opacity: 1;"  transform=" translate(0, 0.000005)" d="M -6.09756 -79.92079 L -6.09756 40.98513 L -6.09756 79.92078000000001 L 6.09756 60.774730000000005" stroke-linecap="round" />
</g>
</g>
</g>
		<g transform="matrix(1 0 0 1 48.246388304 51.1788645047)" id="5YiNS7fBxR1NGta88eOXG"  >
<path style="stroke: rgb(0,0,0); stroke-width: 1; stroke-dasharray: none; stroke-linecap: butt; stroke-dashoffset: 0; stroke-linejoin: miter; stroke-miterlimit: 4; fill: rgb(255,255,255); fill-opacity: 0; fill-rule: nonzero; opacity: 1;"  transform=" translate(0, -0.000005)" d="M 6.59756 9.72059 L -6.59756 -9.72058 z" stroke-linecap="round" />
</g>
</g>
</g>
		<g transform="matrix(0.3484320557 0 0 -0.3484320557 8.2467215092 -62.3971216875)" id="mhUaY3MRkisalMcINUvFe"  >
<path style="stroke: none; stroke-width: 1; stroke-dasharray: none; stroke-linecap: butt; stroke-dashoffset: 0; stroke-linejoin: miter; stroke-miterlimit: 4; fill: rgb(179,181,179); fill-rule: nonzero; opacity: 1;"  transform=" translate(0, 0)" d="M -82 -57.5 L 82 57.5 L -82 57.5 z" stroke-linecap="round" />
</g>
</g>
</g>
		<g transform="matrix(0.1250883999 0.1207964636 -0.1207964636 0.1250883999 -14.8561819894 -34.0291777423)" id="PCIsPen0n7fB0l0cGIhYE"  >
<path style="stroke: rgb(0,0,0); stroke-width: 0; stroke-dasharray: none; stroke-linecap: butt; stroke-dashoffset: 0; stroke-linejoin: miter; stroke-miterlimit: 4; fill: rgb(255,255,255); fill-opacity: 0.85; fill-rule: nonzero; opacity: 1;"  transform=" translate(0, 0.000005)" d="M -17.4216 17.4216 C -9.46086 8.848490000000002 -8.448030000000001 -4.07629 -14.976160000000002 -13.784799999999997 L -17.4216 -17.421609999999998 L -17.4216 -17.421609999999998 L -17.4216 -17.421609999999998 C -7.492410000000001 -10.450049999999997 5.641959999999997 -10.087119999999999 15.940989999999996 -16.499719999999996 L 17.421599999999994 -17.421609999999998 L 17.421599999999994 -17.421609999999998 L 17.421599999999994 -17.421609999999998 C 9.121529999999995 -8.038529999999998 8.621429999999995 5.906190000000002 16.228019999999994 15.859740000000006 L 17.421599999999994 17.421600000000005 L 17.421599999999994 17.421600000000005 L 17.421599999999994 17.421600000000005 C 7.393809999999995 10.807530000000005 -5.519330000000007 10.459890000000005 -15.888450000000002 16.524850000000004 z" stroke-linecap="round" />
</g>
</g>
</g>
<g transform="matrix(0.47 0 0 1 232.1352917694 144.0713518843)" id="Vmao8u9POJKFJSutHyJZB"  >
<path style="stroke: rgb(145,113,91); stroke-width: 0; stroke-dasharray: none; stroke-linecap: butt; stroke-dashoffset: 0; stroke-linejoin: miter; stroke-miterlimit: 4; fill: rgb(229,191,191); fill-rule: nonzero; opacity: 1;"  transform=" translate(0, 0)" d="M -22.32143 -12.85125 C -22.32143 -18.081490000000002 -13.30027 -22.32143 -2.17211 -22.32143 L 2.17211 -22.32143 L 2.17211 -22.32143 C 13.30027 -22.32143 22.32143 -18.08149 22.32143 -12.85125 L 22.32143 12.85125 L 22.32143 12.85125 C 22.32143 18.081490000000002 13.30027 22.32143 2.17211 22.32143 L -2.17211 22.32143 L -2.17211 22.32143 C -13.30027 22.32143 -22.32143 18.08149 -22.32143 12.85125 z" stroke-linecap="round" />
</g>
<g transform="matrix(1 0 0 1 224.8244074389 108.7132264658)" id="0Sccg8HmVpblA9BIZP-4T"  >
<g style=""   >
		<g transform="matrix(-1 0 0 1 0 0)" id="jxScAKuxgwytCmwih-XCA"  >
<path style="stroke:white;stroke-width: 0; stroke-dasharray: none; stroke-linecap: butt; stroke-dashoffset: 0; stroke-linejoin: miter; stroke-miterlimit: 4; stroke: white;fill-rule: nonzero; opacity: 1;filter: url(#SVGID_0);"  transform=" translate(0, 0.000005)" d="M 0 -44.56522 C 20 -44.56522 36.23188 -28.333339999999996 36.23188 -8.33334 C 36.23188 11.66666 19.999999999999996 44.56521 0 44.56521 C -20 44.56521 -36.23188 11.66666 -36.23188 -8.33334 C -36.23188 -28.33334 -19.999999999999996 -44.56522 0 -44.56522 z" stroke-linecap="round" />
<filter id="SVGID_0" y="-23.36585384%" height="146.73170768%" x="-26.90000077%" width="153.80000153999998%" >
	<feGaussianBlur in="SourceAlpha" stdDeviation="1.5"></feGaussianBlur>
	<feOffset dx="-2" dy="0" result="oBlur" ></feOffset>
	<feFlood flood-color="rgb(0,0,0)" flood-opacity="0.5"/>
	<feComposite in2="oBlur" operator="in" />
	<feMerge>
		<feMergeNode></feMergeNode>
		<feMergeNode in="SourceGraphic"></feMergeNode>
	</feMerge>
</filter>
<path style="stroke: rgb(27,80,151); stroke-width: 0; stroke-dasharray: none; stroke-linecap: butt; stroke-dashoffset: 0; stroke-linejoin: miter; stroke-miterlimit: 4; fill: rgb(229,191,191); fill-rule: nonzero; opacity: 1;"  transform=" translate(0, 0.000005)" d="M 0 -44.56522 C 20 -44.56522 36.23188 -28.333339999999996 36.23188 -8.33334 C 36.23188 11.66666 19.999999999999996 44.56521 0 44.56521 C -20 44.56521 -36.23188 11.66666 -36.23188 -8.33334 C -36.23188 -28.33334 -19.999999999999996 -44.56522 0 -44.56522 z" stroke-linecap="round" />
</g>
		<g transform="matrix(-1 0 0 1 16.0025589727 0)" id="1_YKoyqOQnrPBiQoql46y"  >
<path style="stroke:white;stroke-width: 0; stroke-dasharray: none; stroke-linecap: butt; stroke-dashoffset: 0; stroke-linejoin: miter; stroke-miterlimit: 4; stroke: white;fill-rule: nonzero; opacity: 1;filter: url(#SVGID_1);"  transform=" translate(-0.000002703, 0)" d="M 16.00256 -44.56522 C 30.01484 -44.56522 5.830309999999999 -40.918969999999995 -7.737190000000002 -30.122059999999998 C -13.534850000000002 -25.508329999999997 -14.43223 -17.219609999999996 -14.43223 -11.231889999999996 C -14.43223 -4.213989999999996 -14.93486 12.719990000000003 -7.737190000000001 21.398890000000005 C 5.577429999999999 37.45358 28.98465 44.565220000000004 16.00256 44.565220000000004 C -3.997440000000001 44.565220000000004 -20.229319999999998 11.666670000000003 -20.229319999999998 -8.333329999999997 C -20.229319999999998 -28.333329999999997 -3.9974399999999974 -44.56520999999999 16.00256 -44.56520999999999 z" stroke-linecap="round" />
<filter id="SVGID_1" y="-23.36585346%" height="146.73170692%" x="-32.35829808%" width="164.71659616%" >
	<feGaussianBlur in="SourceAlpha" stdDeviation="1.5"></feGaussianBlur>
	<feOffset dx="-2" dy="0" result="oBlur" ></feOffset>
	<feFlood flood-color="rgb(0,0,0)" flood-opacity="0.5"/>
	<feComposite in2="oBlur" operator="in" />
	<feMerge>
		<feMergeNode></feMergeNode>
		<feMergeNode in="SourceGraphic"></feMergeNode>
	</feMerge>
</filter>
<path style="stroke: rgb(27,80,151); stroke-width: 0; stroke-dasharray: none; stroke-linecap: butt; stroke-dashoffset: 0; stroke-linejoin: miter; stroke-miterlimit: 4; fill: rgb(0,0,0); fill-opacity: 0.14; fill-rule: nonzero; opacity: 1;"  transform=" translate(-0.000002703, 0)" d="M 16.00256 -44.56522 C 30.01484 -44.56522 5.830309999999999 -40.918969999999995 -7.737190000000002 -30.122059999999998 C -13.534850000000002 -25.508329999999997 -14.43223 -17.219609999999996 -14.43223 -11.231889999999996 C -14.43223 -4.213989999999996 -14.93486 12.719990000000003 -7.737190000000001 21.398890000000005 C 5.577429999999999 37.45358 28.98465 44.565220000000004 16.00256 44.565220000000004 C -3.997440000000001 44.565220000000004 -20.229319999999998 11.666670000000003 -20.229319999999998 -8.333329999999997 C -20.229319999999998 -28.333329999999997 -3.9974399999999974 -44.56520999999999 16.00256 -44.56520999999999 z" stroke-linecap="round" />
</g>
</g>
</g>
<g transform="matrix(0.9781476007 -0.2079116908 0.2079116908 0.9781476007 200.2892194754 121.7499233129)" id="rCkWShFDcgFlxOsjL-4E8"  >
<path style="stroke: rgb(91,136,18); stroke-width: 0; stroke-dasharray: none; stroke-linecap: butt; stroke-dashoffset: 0; stroke-linejoin: miter; stroke-miterlimit: 4; fill: rgb(227,216,207); fill-rule: nonzero; opacity: 1;"  transform=" translate(0.000004046, 0.0000045683)" d="M 3.77981 -1.81234 C 8.47775 -1.81234 6.71638 -2.8181599999999998 6.71638 -0.8190400000000001 C 6.71638 1.1800799999999998 2.90356 2.8025599999999997 -1.7943799999999994 2.8025599999999997 C -3.3847199999999997 2.8025599999999997 -4.873619999999999 2.61663 -6.14753 2.2931099999999995 C -6.14753 2.2931099999999995 -6.361009999999999 1.7096299999999995 -6.46615 1.4222499999999996 L -6.46615 1.4222499999999996 C -6.84565 0.3849899999999995 -7.03983 -0.7109100000000006 -7.03983 -1.8154100000000004 C -7.03983 -2.12957 -7.03983 -2.7674000000000003 -7.03983 -2.7674000000000003 C -5.37552 -3.0218300000000005 -1.9093100000000005 -1.8123400000000003 0.2542799999999996 -1.8123400000000003 z" stroke-linecap="round" />
</g>
<g transform="matrix(0.1597908122 0 0 0.1317372092 197.3518883692 122.7897729395)" id="PQ53gGFdH54ESSmjLX9Dc"  >
<g style=""   >
		<g transform="matrix(1 0 0 1 0 0)" id="XZowS5eIi_HHmV250cNQg"  >
<path style="stroke: rgb(160,102,1); stroke-width: 0; stroke-dasharray: none; stroke-linecap: butt; stroke-dashoffset: 0; stroke-linejoin: miter; stroke-miterlimit: 4; fill: rgb(62,39,29); fill-rule: nonzero; opacity: 1;"  transform=" translate(-18.3823529412, -18.3823529412)" d="M 18.38235294117647 0 C 28.529411764705884 0 36.76470588235294 8.235294117647058 36.76470588235294 18.38235294117647 C 36.76470588235294 28.529411764705884 28.529411764705884 36.76470588235294 18.38235294117647 36.76470588235294 C 8.235294117647058 36.76470588235294 0 28.529411764705884 0 18.38235294117647 C 0 8.235294117647058 8.235294117647058 0 18.38235294117647 0 Z" stroke-linecap="round" />
</g>
		<g transform="matrix(0.9682030411 0 0 0.9682030411 0 0)" id="6hWf0-ZvSL0QOBQOgSH6G"  >
<path style="stroke: rgb(160,102,1); stroke-width: 0; stroke-dasharray: none; stroke-linecap: butt; stroke-dashoffset: 0; stroke-linejoin: miter; stroke-miterlimit: 4; fill: rgb(172,117,27); fill-rule: nonzero; opacity: 1;"  transform=" translate(0, 0)" d="M 0 -18.38235 C 10.14706 -18.38235 18.38235 -10.147059999999998 18.38235 0 C 18.38235 10.14706 10.147059999999998 18.38235 0 18.38235 C -10.14706 18.38235 -18.38235 10.147059999999998 -18.38235 0 C -18.38235 -10.14706 -10.147059999999998 -18.38235 0 -18.38235 z" stroke-linecap="round" />
</g>
		<g transform="matrix(1 0 0 1 0 2.6633101289)" id="-UavzdP7ja72kU-yHLeUi"  >
<path style="stroke:white;stroke-width: 0; stroke-dasharray: none; stroke-linecap: butt; stroke-dashoffset: 0; stroke-linejoin: miter; stroke-miterlimit: 4; stroke: white;fill-rule: nonzero; opacity: 1;filter: url(#SVGID_2);"  transform=" translate(-0.000005, 0.0000056184)" d="M -5.54501 -6.88386 C -5.173080000000001 -7.96954 -7.38945 -9.07226 -7.48793 -9.878720000000001 C -7.91251 -13.355710000000002 -9.30923 -14.171800000000001 -6.72543 -13.478890000000002 C -5.9190700000000005 -13.262640000000001 -0.49504000000000037 -9.878720000000001 1.1347199999999997 -9.878720000000001 C 2.2598399999999996 -9.878720000000001 -0.43286000000000024 -7.826710000000001 0.4067099999999997 -7.875350000000001 C 4.626779999999999 -8.119800000000001 9.043700000000001 -10.711540000000001 7.66914 -7.875350000000001 C 7.19358 -6.894110000000001 0.7169599999999994 -5.092870000000001 1.1347199999999997 -3.2622600000000013 C 1.4357699999999998 -1.9430900000000013 14.94199 -5.444560000000001 14.94199 -4.0345900000000015 C 14.94199 -2.5589900000000014 10.03303 -2.6802300000000017 8.61747 -2.4406200000000013 C 5.530790000000001 -1.9181300000000014 4.127230000000001 -2.5504900000000013 1.1347200000000006 -1.4226100000000013 C 0.3990200000000006 -1.1453200000000012 6.725320000000001 5.451049999999999 5.958500000000001 5.615479999999999 C 4.989520000000001 5.8232599999999985 1.9368200000000009 1.946619999999999 1.1347200000000006 2.2847899999999988 C -0.09807999999999928 2.804549999999999 5.423210000000001 10.60005 3.9462900000000007 10.641 C 2.811740000000001 10.67246 -1.0848299999999989 1.2743599999999997 -2.217119999999999 1.4466900000000003 C -3.1254399999999993 1.5849300000000002 -1.270379999999999 13.43032 -2.217119999999999 13.43032 C -3.907409999999999 13.43032 -1.907699999999999 14.04865 -2.217119999999999 13.43032 C -3.146339999999999 11.57344 -2.394169999999999 6.37244 -4.7881599999999995 2.2847799999999996 C -6.382579999999999 -0.4376400000000005 -14.94198 0.11843999999999966 -14.94198 -3.26227 C -14.94198 -5.3461099999999995 -6.184869999999998 -5.01605 -5.5450099999999996 -6.88387 z" stroke-linecap="round" />
<filter id="SVGID_2" y="-23.64826655%" height="147.2965331%" x="-23.34627561%" width="146.69255121999998%" >
	<feGaussianBlur in="SourceAlpha" stdDeviation="0.5"></feGaussianBlur>
	<feOffset dx="0" dy="0" result="oBlur" ></feOffset>
	<feFlood flood-color="rgb(0,0,0)" flood-opacity="1"/>
	<feComposite in2="oBlur" operator="in" />
	<feMerge>
		<feMergeNode></feMergeNode>
		<feMergeNode in="SourceGraphic"></feMergeNode>
	</feMerge>
</filter>
<path style="stroke: rgb(160,102,1); stroke-width: 0; stroke-dasharray: none; stroke-linecap: butt; stroke-dashoffset: 0; stroke-linejoin: miter; stroke-miterlimit: 4; fill: rgb(101,49,8); fill-rule: nonzero; opacity: 1;"  transform=" translate(-0.000005, 0.0000056184)" d="M -5.54501 -6.88386 C -5.173080000000001 -7.96954 -7.38945 -9.07226 -7.48793 -9.878720000000001 C -7.91251 -13.355710000000002 -9.30923 -14.171800000000001 -6.72543 -13.478890000000002 C -5.9190700000000005 -13.262640000000001 -0.49504000000000037 -9.878720000000001 1.1347199999999997 -9.878720000000001 C 2.2598399999999996 -9.878720000000001 -0.43286000000000024 -7.826710000000001 0.4067099999999997 -7.875350000000001 C 4.626779999999999 -8.119800000000001 9.043700000000001 -10.711540000000001 7.66914 -7.875350000000001 C 7.19358 -6.894110000000001 0.7169599999999994 -5.092870000000001 1.1347199999999997 -3.2622600000000013 C 1.4357699999999998 -1.9430900000000013 14.94199 -5.444560000000001 14.94199 -4.0345900000000015 C 14.94199 -2.5589900000000014 10.03303 -2.6802300000000017 8.61747 -2.4406200000000013 C 5.530790000000001 -1.9181300000000014 4.127230000000001 -2.5504900000000013 1.1347200000000006 -1.4226100000000013 C 0.3990200000000006 -1.1453200000000012 6.725320000000001 5.451049999999999 5.958500000000001 5.615479999999999 C 4.989520000000001 5.8232599999999985 1.9368200000000009 1.946619999999999 1.1347200000000006 2.2847899999999988 C -0.09807999999999928 2.804549999999999 5.423210000000001 10.60005 3.9462900000000007 10.641 C 2.811740000000001 10.67246 -1.0848299999999989 1.2743599999999997 -2.217119999999999 1.4466900000000003 C -3.1254399999999993 1.5849300000000002 -1.270379999999999 13.43032 -2.217119999999999 13.43032 C -3.907409999999999 13.43032 -1.907699999999999 14.04865 -2.217119999999999 13.43032 C -3.146339999999999 11.57344 -2.394169999999999 6.37244 -4.7881599999999995 2.2847799999999996 C -6.382579999999999 -0.4376400000000005 -14.94198 0.11843999999999966 -14.94198 -3.26227 C -14.94198 -5.3461099999999995 -6.184869999999998 -5.01605 -5.5450099999999996 -6.88387 z" stroke-linecap="round" />
</g>
		<g transform="matrix(0.2489283268 0 0 0.2489283268 0 0)" id="_M_PhkXVyjcew9P-qpfpZ"  >
<path style="stroke: rgb(160,102,1); stroke-width: 0; stroke-dasharray: none; stroke-linecap: butt; stroke-dashoffset: 0; stroke-linejoin: miter; stroke-miterlimit: 4; fill: rgb(0,0,0); fill-rule: nonzero; opacity: 1;"  transform=" translate(0, 0)" d="M 0 -18.38235 C 10.14706 -18.38235 18.38235 -10.147059999999998 18.38235 0 C 18.38235 10.14706 10.147059999999998 18.38235 0 18.38235 C -10.14706 18.38235 -18.38235 10.147059999999998 -18.38235 0 C -18.38235 -10.14706 -10.147059999999998 -18.38235 0 -18.38235 z" stroke-linecap="round" />
</g>
</g>
</g>
<g transform="matrix(0.2116737531 -0.0728851182 0.2425201767 0.7043297352 280.5230276868 194.9279053322)" id="ez10Jj8WAVIQ2USntPusA"  >
<path style="stroke: rgb(61,1,45); stroke-width: 0; stroke-dasharray: none; stroke-linecap: butt; stroke-dashoffset: 0; stroke-linejoin: miter; stroke-miterlimit: 4; fill: rgb(31,0,0); fill-rule: nonzero; opacity: 1;"  transform=" translate(0, 0)" d="M 0 -59.25926 C 32.71111 -59.25926 59.25926 -32.71111 59.25926 0 C 59.25926 32.71111 32.71111 59.25926 0 59.25926 C -32.71111 59.25926 -59.25926 32.71111 -59.25926 0 C -59.25926 -32.71111 -32.71111 -59.25926 0 -59.25926 z" stroke-linecap="round" />
</g>
<g transform="matrix(0.1755449284 0.0973061427 -0.2951955789 0.5325469214 280.5230276868 246.4635309939)" id="6jeml4_Nf460Z3XmHBIGQ"  >
<path style="stroke: rgb(61,1,45); stroke-width: 0; stroke-dasharray: none; stroke-linecap: butt; stroke-dashoffset: 0; stroke-linejoin: miter; stroke-miterlimit: 4; fill: rgb(31,0,0); fill-rule: nonzero; opacity: 1;"  transform=" translate(0, 0)" d="M 0 -59.25926 C 32.71111 -59.25926 59.25926 -32.71111 59.25926 0 C 59.25926 32.71111 32.71111 59.25926 0 59.25926 C -32.71111 59.25926 -59.25926 32.71111 -59.25926 0 C -59.25926 -32.71111 -32.71111 -59.25926 0 -59.25926 z" stroke-linecap="round" />
</g>
<g transform="matrix(1 0 0 0.9376148124 243.4173742827 112.6254787764)" id="K5yXoMlDgDefZI-C_uO-h"  >
<path style="stroke: rgb(232,221,254); stroke-width: 0; stroke-dasharray: none; stroke-linecap: butt; stroke-dashoffset: 0; stroke-linejoin: miter; stroke-miterlimit: 4; fill: rgb(246,231,229); fill-rule: nonzero; opacity: 1;"  transform=" translate(-0.0000011508, -8.671e-7)" d="M -26.17105 -51.70254 C -16.95223 -51.70254 -4.8003 -51.8849 5.1572700000000005 -44.72356 C 13.26862 -38.89 20.26302 -26.4877 20.26302 -18.97813 C 20.26302 -11.680250000000001 32.78384 33.37927 27.46599 50.7502 L 24.53366 51.70297 C 14.56863 49.39185 14.877340000000002 32.50224 12.80802 9.320250000000001 C 12.67004 7.774550000000001 15.223090000000001 -13.89379 15.113500000000002 -15.345609999999997 C 14.887450000000001 -18.340169999999997 16.94735 -3.3361899999999967 15.113500000000002 -5.674149999999997 C 13.777000000000001 -7.378039999999997 14.746430000000002 -16.590399999999995 12.808020000000003 -23.163019999999996 C 12.349180000000002 -24.718829999999997 13.932990000000002 -7.923389999999996 12.808020000000003 -9.021639999999996 C 11.286650000000003 -10.506889999999997 7.044340000000003 -29.669709999999995 7.044340000000003 -30.043009999999995 C 7.044340000000003 -32.56872 4.4782100000000025 -32.47779 5.157270000000002 -27.656109999999995 C 5.795180000000002 -23.126659999999994 9.774610000000003 -13.869369999999995 7.044340000000002 -15.345599999999994 C -6.568869999999999 -22.706139999999994 -38.00108 -51.702529999999996 -26.17106 -51.702529999999996 z" stroke-linecap="round" />
</g>
<g transform="matrix(1 0 0 1 202.6600125732 84.4648285045)" id="uAr8biG5TXkipHAS1n-BA"  >
<path style="stroke: rgb(9,194,235); stroke-width: 0; stroke-dasharray: none; stroke-linecap: butt; stroke-dashoffset: 0; stroke-linejoin: miter; stroke-miterlimit: 4; fill: rgb(246,231,229); fill-rule: nonzero; opacity: 1;"  transform=" translate(2.807e-7, 0.0000051649)" d="M 8.69955 -19.68318 C 19.52308 -19.68318 14.974060000000001 -23.44789 14.974060000000001 -12.62436 C 14.974060000000001 -10.30401 6.475200000000001 -9.20572 2.8651100000000014 -7.967829999999999 C -1.781089999999999 -6.3746599999999995 -1.9698699999999985 -4.8076799999999995 -3.899099999999999 -2.8204399999999996 C -6.563549999999999 -0.07587999999999973 -11.374699999999999 10.711920000000001 -13.06749 16.37892 C -13.63903 18.29229 -8.815719999999999 20.31681 -10.20824 20.31681 C -19.54496 20.31681 -15.10408 11.08014 -13.06749 4.18047 C -12.743179999999999 3.0817499999999995 -10.908299999999999 1.4114599999999995 -10.908299999999999 -0.07535000000000025 C -10.908299999999999 -10.89888 -2.123989999999999 -19.68319 8.69954 -19.68319 z" stroke-linecap="round" />
</g>
<g transform="matrix(1 0 0 1 247.5318579455 483.4212462753)" id="Tz10OUlRdZSICxZ_TdjON"  >
<g style=""   >
		<g transform="matrix(1 0 0 1 0 0)" id="SBhgJe2WkxvMoTC6QmoPo"  >
<g style=""   >
		<g transform="matrix(0.0932187774 0 0 0.3250950572 20.167162548 27.9023023589)" id="V573liW4Y9BtoPjB9OFMY"  >
<path style="stroke: rgb(172,200,106); stroke-width: 0; stroke-dasharray: none; stroke-linecap: butt; stroke-dashoffset: 0; stroke-linejoin: miter; stroke-miterlimit: 4; fill: rgb(8,4,4); fill-rule: nonzero; opacity: 1;"  transform=" translate(0, 0)" d="M -47.61905 -47.61905 L 47.61905 -47.61905 L 47.61905 47.61905 L -47.61905 47.61905 z" stroke-linecap="round" />
</g>
		<g transform="matrix(0.7026780399 0.0112858271 -0.0044499185 0.2345773787 0 0)" id="66VB04WjBHreG7WeuGslI"  >
<path style="stroke: rgb(162,139,28); stroke-width: 0; stroke-dasharray: none; stroke-linecap: butt; stroke-dashoffset: 0; stroke-linejoin: miter; stroke-miterlimit: 4; fill: rgb(38,13,13); fill-rule: nonzero; opacity: 1;"  transform=" translate(-0.0000055156, -0.000003137)" d="M -33.00768 186.1932 C -33.72267 186.31291 -34.42151 185.51086999999998 -34.92792 183.98937999999998 C -35.43434 182.46788999999998 -35.699980000000004 180.37221 -35.65784 178.23095999999998 L -35.50818 170.6256 L -35.50818 170.6256 C -35.34246 162.20438 -33.64159 154.75446 -31.083450000000003 151.24496 L -28.69938 147.97426 L -28.69938 147.97426 C -25.59382 143.71376999999998 -22.678690000000003 138.30942 -20.02133 131.88609 L -8.899059999999999 105.00148 L -8.899059999999999 105.00148 C -7.188739999999998 100.86732 -5.721339999999999 95.90592 -4.557219999999998 90.32134 L -3.4421999999999984 84.97234 L -3.4421999999999984 84.97234 C 4.960760000000002 44.661350000000006 8.169530000000002 -3.475139999999996 5.584990000000001 -50.449389999999994 L -1.7878099999999986 -184.45086 L 15.522630000000001 -148.17406 L 34.67028 -186.20490999999998 L 35.6622 101.77412000000004 L 13.569489999999998 139.75001000000003 L 0.14674999999999905 169.70895000000002 L 0.14674999999999905 169.70895000000002 C -3.307500000000001 177.41867000000002 -7.444610000000001 181.91305000000003 -11.750950000000001 182.63408 z" stroke-linecap="round" />
</g>
		<g transform="matrix(1 0 0 1.2414829659 11.1796237856 -16.032582581)" id="BpGWwk75AsQ9nsuo1xY5y"  >
<path style="stroke:white;stroke-width: 1; stroke-dasharray: none; stroke-linecap: butt; stroke-dashoffset: 0; stroke-linejoin: miter; stroke-miterlimit: 4; stroke: white;fill-rule: nonzero; opacity: 1;filter: url(#SVGID_3);"  transform=" translate(0, 0)" d="M 0 -14.95575 L 0 14.95575 z" stroke-linecap="round" />
<filter id="SVGID_3" y="-40%" height="180%" x="-40%" width="180%" >
	<feGaussianBlur in="SourceAlpha" stdDeviation="0.5"></feGaussianBlur>
	<feOffset dx="0" dy="0" result="oBlur" ></feOffset>
	<feFlood flood-color="rgb(0,0,0)" flood-opacity="1"/>
	<feComposite in2="oBlur" operator="in" />
	<feMerge>
		<feMergeNode></feMergeNode>
		<feMergeNode in="SourceGraphic"></feMergeNode>
	</feMerge>
</filter>
<path style="stroke: rgb(0,0,0); stroke-width: 1; stroke-dasharray: none; stroke-linecap: butt; stroke-dashoffset: 0; stroke-linejoin: miter; stroke-miterlimit: 4; fill: rgb(255,255,255); fill-opacity: 0; fill-rule: nonzero; opacity: 1;"  transform=" translate(0, 0)" d="M 0 -14.95575 L 0 14.95575 z" stroke-linecap="round" />
</g>
</g>
</g>
		<g transform="matrix(0.7824804413 -0.2847995895 0.2847995895 0.7824804413 12.0385864284 -32.6570377351)" id="FWNUbYwnmjwdPkeQBXtC6"  >
<path style="stroke: rgb(240,86,196); stroke-width: 0; stroke-dasharray: none; stroke-linecap: butt; stroke-dashoffset: 0; stroke-linejoin: miter; stroke-miterlimit: 4; fill: rgb(80,65,65); fill-rule: nonzero; opacity: 1;"  transform=" translate(0, 0)" d="M -0.9136 -2.26155 L 0.9136 -2.26155 L 0.9136 2.26155 L -0.9136 2.26155 z M -0.60565 1.9126 L 0.6056600000000001 1.9126 L 0.6056600000000001 0.70129 L -0.60565 0.70129 z" stroke-linecap="round" />
</g>
</g>
</g>
<g transform="matrix(0.4629850746 0 0 0.1970149254 230.158184795 120.3797063982)" id="61-Mhp7VZug4qRq1RF3_B"  >
<path style="stroke: rgb(91,136,18); stroke-width: 0; stroke-dasharray: none; stroke-linecap: butt; stroke-dashoffset: 0; stroke-linejoin: miter; stroke-miterlimit: 4; fill: rgb(227,216,207); fill-rule: nonzero; opacity: 1;"  transform=" translate(-0.0000049279, -0.0000064968)" d="M 9.00877 -10.68547 C 19.15583 -10.68547 18.37542 -16.29649 18.37542 -6.149430000000001 C 18.37542 3.997629999999999 10.140129999999997 12.232919999999998 -0.006930000000000547 12.232919999999998 C -10.15399 12.232919999999998 -18.38928 3.9976299999999974 -18.38928 -6.149430000000001 C -18.38928 -16.29649 -1.1382799999999982 -10.68547 9.008780000000002 -10.68547 z" stroke-linecap="round" />
</g>
<g transform="matrix(1.2825234609 0.3436511256 -0.3238195558 1.2085110347 75.4973411048 394.3910937672)" id="FQrnO0Wjl9cEtWmb752U1"  >
<g style=""   >
		<g transform="matrix(1 0 0 1 0 0)" id="8ku_jUw7CpICyq-fibUBs"  >
<g style=""   >
		<g transform="matrix(0.0932187774 0 0 0.3250950572 20.167162548 27.9023023589)" id="ifurRiHFg5Gi5yv4ko4NQ"  >
<path style="stroke: rgb(172,200,106); stroke-width: 0; stroke-dasharray: none; stroke-linecap: butt; stroke-dashoffset: 0; stroke-linejoin: miter; stroke-miterlimit: 4; fill: rgb(8,4,4); fill-rule: nonzero; opacity: 1;"  transform=" translate(0, 0)" d="M -47.61905 -47.61905 L 47.61905 -47.61905 L 47.61905 47.61905 L -47.61905 47.61905 z" stroke-linecap="round" />
</g>
		<g transform="matrix(0.7026780399 0.0112858271 -0.0044499185 0.2345773787 0 0)" id="PydfCzBGuZ83MUl1eU7RR"  >
<path style="stroke: rgb(162,139,28); stroke-width: 0; stroke-dasharray: none; stroke-linecap: butt; stroke-dashoffset: 0; stroke-linejoin: miter; stroke-miterlimit: 4; fill: rgb(38,13,13); fill-rule: nonzero; opacity: 1;"  transform=" translate(-0.0000055156, -0.000003137)" d="M -33.00768 186.1932 C -33.72267 186.31291 -34.42151 185.51086999999998 -34.92792 183.98937999999998 C -35.43434 182.46788999999998 -35.699980000000004 180.37221 -35.65784 178.23095999999998 L -35.50818 170.6256 L -35.50818 170.6256 C -35.34246 162.20438 -33.64159 154.75446 -31.083450000000003 151.24496 L -28.69938 147.97426 L -28.69938 147.97426 C -25.59382 143.71376999999998 -22.678690000000003 138.30942 -20.02133 131.88609 L -8.899059999999999 105.00148 L -8.899059999999999 105.00148 C -7.188739999999998 100.86732 -5.721339999999999 95.90592 -4.557219999999998 90.32134 L -3.4421999999999984 84.97234 L -3.4421999999999984 84.97234 C 4.960760000000002 44.661350000000006 8.169530000000002 -3.475139999999996 5.584990000000001 -50.449389999999994 L -1.7878099999999986 -184.45086 L 15.522630000000001 -148.17406 L 34.67028 -186.20490999999998 L 35.6622 101.77412000000004 L 13.569489999999998 139.75001000000003 L 0.14674999999999905 169.70895000000002 L 0.14674999999999905 169.70895000000002 C -3.307500000000001 177.41867000000002 -7.444610000000001 181.91305000000003 -11.750950000000001 182.63408 z" stroke-linecap="round" />
</g>
		<g transform="matrix(1 0 0 1.2414829659 11.1796237856 -16.032582581)" id="af43tBHzr8O94YezYuQv1"  >
<path style="stroke:white;stroke-width: 1; stroke-dasharray: none; stroke-linecap: butt; stroke-dashoffset: 0; stroke-linejoin: miter; stroke-miterlimit: 4; stroke: white;fill-rule: nonzero; opacity: 1;filter: url(#SVGID_4);"  transform=" translate(0, 0)" d="M 0 -14.95575 L 0 14.95575 z" stroke-linecap="round" />
<filter id="SVGID_4" y="-40%" height="180%" x="-40%" width="180%" >
	<feGaussianBlur in="SourceAlpha" stdDeviation="0.5"></feGaussianBlur>
	<feOffset dx="0" dy="0" result="oBlur" ></feOffset>
	<feFlood flood-color="rgb(0,0,0)" flood-opacity="1"/>
	<feComposite in2="oBlur" operator="in" />
	<feMerge>
		<feMergeNode></feMergeNode>
		<feMergeNode in="SourceGraphic"></feMergeNode>
	</feMerge>
</filter>
<path style="stroke: rgb(0,0,0); stroke-width: 1; stroke-dasharray: none; stroke-linecap: butt; stroke-dashoffset: 0; stroke-linejoin: miter; stroke-miterlimit: 4; fill: rgb(255,255,255); fill-opacity: 0; fill-rule: nonzero; opacity: 1;"  transform=" translate(0, 0)" d="M 0 -14.95575 L 0 14.95575 z" stroke-linecap="round" />
</g>
</g>
</g>
		<g transform="matrix(0.7824804413 -0.2847995895 0.2847995895 0.7824804413 12.0385864284 -32.6570377351)" id="renWi3euLMzVzOCoptokm"  >
<path style="stroke: rgb(240,86,196); stroke-width: 0; stroke-dasharray: none; stroke-linecap: butt; stroke-dashoffset: 0; stroke-linejoin: miter; stroke-miterlimit: 4; fill: rgb(80,65,65); fill-rule: nonzero; opacity: 1;"  transform=" translate(0, 0)" d="M -0.9136 -2.26155 L 0.9136 -2.26155 L 0.9136 2.26155 L -0.9136 2.26155 z M -0.60565 1.9126 L 0.6056600000000001 1.9126 L 0.6056600000000001 0.70129 L -0.60565 0.70129 z" stroke-linecap="round" />
</g>
</g>
</g>
<g transform="matrix(0.2058615646 0 0 0.1228151981 228.6086273773 120.3797063982)" id="foBhvN5mvjHIIW_KGBQM8"  >
<g style=""   >
		<g transform="matrix(1 0 0 1 0 0)" id="QM5RNdNZ1_HKdy7sKYuJm"  >
<path style="stroke: rgb(160,102,1); stroke-width: 0; stroke-dasharray: none; stroke-linecap: butt; stroke-dashoffset: 0; stroke-linejoin: miter; stroke-miterlimit: 4; fill: rgb(62,39,29); fill-rule: nonzero; opacity: 1;"  transform=" translate(-18.3823529412, -18.3823529412)" d="M 18.38235294117647 0 C 28.529411764705884 0 36.76470588235294 8.235294117647058 36.76470588235294 18.38235294117647 C 36.76470588235294 28.529411764705884 28.529411764705884 36.76470588235294 18.38235294117647 36.76470588235294 C 8.235294117647058 36.76470588235294 0 28.529411764705884 0 18.38235294117647 C 0 8.235294117647058 8.235294117647058 0 18.38235294117647 0 Z" stroke-linecap="round" />
</g>
		<g transform="matrix(0.9682030411 0 0 0.9682030411 0 0)" id="uuxin9Xbqveyke2SpX1M1"  >
<path style="stroke: rgb(160,102,1); stroke-width: 0; stroke-dasharray: none; stroke-linecap: butt; stroke-dashoffset: 0; stroke-linejoin: miter; stroke-miterlimit: 4; fill: rgb(172,117,27); fill-rule: nonzero; opacity: 1;"  transform=" translate(0, 0)" d="M 0 -18.38235 C 10.14706 -18.38235 18.38235 -10.147059999999998 18.38235 0 C 18.38235 10.14706 10.147059999999998 18.38235 0 18.38235 C -10.14706 18.38235 -18.38235 10.147059999999998 -18.38235 0 C -18.38235 -10.14706 -10.147059999999998 -18.38235 0 -18.38235 z" stroke-linecap="round" />
</g>
		<g transform="matrix(1 0 0 1 0 2.6633101289)" id="ibTSLrqOtFJ347NkcGcGq"  >
<path style="stroke:white;stroke-width: 0; stroke-dasharray: none; stroke-linecap: butt; stroke-dashoffset: 0; stroke-linejoin: miter; stroke-miterlimit: 4; stroke: white;fill-rule: nonzero; opacity: 1;filter: url(#SVGID_5);"  transform=" translate(-0.000005, 0.0000056184)" d="M -5.54501 -6.88386 C -5.173080000000001 -7.96954 -7.38945 -9.07226 -7.48793 -9.878720000000001 C -7.91251 -13.355710000000002 -9.30923 -14.171800000000001 -6.72543 -13.478890000000002 C -5.9190700000000005 -13.262640000000001 -0.49504000000000037 -9.878720000000001 1.1347199999999997 -9.878720000000001 C 2.2598399999999996 -9.878720000000001 -0.43286000000000024 -7.826710000000001 0.4067099999999997 -7.875350000000001 C 4.626779999999999 -8.119800000000001 9.043700000000001 -10.711540000000001 7.66914 -7.875350000000001 C 7.19358 -6.894110000000001 0.7169599999999994 -5.092870000000001 1.1347199999999997 -3.2622600000000013 C 1.4357699999999998 -1.9430900000000013 14.94199 -5.444560000000001 14.94199 -4.0345900000000015 C 14.94199 -2.5589900000000014 10.03303 -2.6802300000000017 8.61747 -2.4406200000000013 C 5.530790000000001 -1.9181300000000014 4.127230000000001 -2.5504900000000013 1.1347200000000006 -1.4226100000000013 C 0.3990200000000006 -1.1453200000000012 6.725320000000001 5.451049999999999 5.958500000000001 5.615479999999999 C 4.989520000000001 5.8232599999999985 1.9368200000000009 1.946619999999999 1.1347200000000006 2.2847899999999988 C -0.09807999999999928 2.804549999999999 5.423210000000001 10.60005 3.9462900000000007 10.641 C 2.811740000000001 10.67246 -1.0848299999999989 1.2743599999999997 -2.217119999999999 1.4466900000000003 C -3.1254399999999993 1.5849300000000002 -1.270379999999999 13.43032 -2.217119999999999 13.43032 C -3.907409999999999 13.43032 -1.907699999999999 14.04865 -2.217119999999999 13.43032 C -3.146339999999999 11.57344 -2.394169999999999 6.37244 -4.7881599999999995 2.2847799999999996 C -6.382579999999999 -0.4376400000000005 -14.94198 0.11843999999999966 -14.94198 -3.26227 C -14.94198 -5.3461099999999995 -6.184869999999998 -5.01605 -5.5450099999999996 -6.88387 z" stroke-linecap="round" />
<filter id="SVGID_5" y="-23.64826655%" height="147.2965331%" x="-23.34627561%" width="146.69255121999998%" >
	<feGaussianBlur in="SourceAlpha" stdDeviation="0.5"></feGaussianBlur>
	<feOffset dx="0" dy="0" result="oBlur" ></feOffset>
	<feFlood flood-color="rgb(0,0,0)" flood-opacity="1"/>
	<feComposite in2="oBlur" operator="in" />
	<feMerge>
		<feMergeNode></feMergeNode>
		<feMergeNode in="SourceGraphic"></feMergeNode>
	</feMerge>
</filter>
<path style="stroke: rgb(160,102,1); stroke-width: 0; stroke-dasharray: none; stroke-linecap: butt; stroke-dashoffset: 0; stroke-linejoin: miter; stroke-miterlimit: 4; fill: rgb(101,49,8); fill-rule: nonzero; opacity: 1;"  transform=" translate(-0.000005, 0.0000056184)" d="M -5.54501 -6.88386 C -5.173080000000001 -7.96954 -7.38945 -9.07226 -7.48793 -9.878720000000001 C -7.91251 -13.355710000000002 -9.30923 -14.171800000000001 -6.72543 -13.478890000000002 C -5.9190700000000005 -13.262640000000001 -0.49504000000000037 -9.878720000000001 1.1347199999999997 -9.878720000000001 C 2.2598399999999996 -9.878720000000001 -0.43286000000000024 -7.826710000000001 0.4067099999999997 -7.875350000000001 C 4.626779999999999 -8.119800000000001 9.043700000000001 -10.711540000000001 7.66914 -7.875350000000001 C 7.19358 -6.894110000000001 0.7169599999999994 -5.092870000000001 1.1347199999999997 -3.2622600000000013 C 1.4357699999999998 -1.9430900000000013 14.94199 -5.444560000000001 14.94199 -4.0345900000000015 C 14.94199 -2.5589900000000014 10.03303 -2.6802300000000017 8.61747 -2.4406200000000013 C 5.530790000000001 -1.9181300000000014 4.127230000000001 -2.5504900000000013 1.1347200000000006 -1.4226100000000013 C 0.3990200000000006 -1.1453200000000012 6.725320000000001 5.451049999999999 5.958500000000001 5.615479999999999 C 4.989520000000001 5.8232599999999985 1.9368200000000009 1.946619999999999 1.1347200000000006 2.2847899999999988 C -0.09807999999999928 2.804549999999999 5.423210000000001 10.60005 3.9462900000000007 10.641 C 2.811740000000001 10.67246 -1.0848299999999989 1.2743599999999997 -2.217119999999999 1.4466900000000003 C -3.1254399999999993 1.5849300000000002 -1.270379999999999 13.43032 -2.217119999999999 13.43032 C -3.907409999999999 13.43032 -1.907699999999999 14.04865 -2.217119999999999 13.43032 C -3.146339999999999 11.57344 -2.394169999999999 6.37244 -4.7881599999999995 2.2847799999999996 C -6.382579999999999 -0.4376400000000005 -14.94198 0.11843999999999966 -14.94198 -3.26227 C -14.94198 -5.3461099999999995 -6.184869999999998 -5.01605 -5.5450099999999996 -6.88387 z" stroke-linecap="round" />
</g>
		<g transform="matrix(0.2489283268 0 0 0.2489283268 0 0)" id="zpT5SOCi5vHupUHfjD1G_"  >
<path style="stroke: rgb(160,102,1); stroke-width: 0; stroke-dasharray: none; stroke-linecap: butt; stroke-dashoffset: 0; stroke-linejoin: miter; stroke-miterlimit: 4; fill: rgb(0,0,0); fill-rule: nonzero; opacity: 1;"  transform=" translate(0, 0)" d="M 0 -18.38235 C 10.14706 -18.38235 18.38235 -10.147059999999998 18.38235 0 C 18.38235 10.14706 10.147059999999998 18.38235 0 18.38235 C -10.14706 18.38235 -18.38235 10.147059999999998 -18.38235 0 C -18.38235 -10.14706 -10.147059999999998 -18.38235 0 -18.38235 z" stroke-linecap="round" />
</g>
</g>
</g>
<g transform="matrix(1 0 0 1 101.6386481338 475.8944065824)" id="qvab5sYfDm9DePCCqhe-k"  >
<path style="stroke: rgb(182,129,56); stroke-width: 0; stroke-dasharray: none; stroke-linecap: butt; stroke-dashoffset: 0; stroke-linejoin: miter; stroke-miterlimit: 4; fill: rgb(116,67,2); fill-rule: nonzero; opacity: 1;"  transform=" translate(-101.021365, -20.986715)" d="M 202.04273 0 L 202.04273 41.97343 L 0 41.97343 L 0 0 z" stroke-linecap="round" />
</g>
<g transform="matrix(0.2303464375 0.1276831153 -0.4662910865 0.8412113879 166.1694557817 200.4369312021)" id="LBwXLToQmqoaGin0jNQqx"  >
<path style="stroke: rgb(61,1,45); stroke-width: 0; stroke-dasharray: none; stroke-linecap: butt; stroke-dashoffset: 0; stroke-linejoin: miter; stroke-miterlimit: 4; fill: rgb(31,0,0); fill-rule: nonzero; opacity: 1;"  transform=" translate(0, 0.000005)" d="M 2.95048 -58.45843 C 35.66159 -58.45843 56.308769999999996 -49.00392 56.308769999999996 -16.292810000000003 C 56.308769999999996 16.418299999999995 15.798579999999994 58.45842999999999 -16.912530000000004 58.45842999999999 C -49.62364 58.45842999999999 -56.30877 33.51192999999999 -56.30877 0.8008199999999945 C -56.30877 -31.910290000000003 -29.760620000000003 -58.45844 2.950489999999995 -58.45844 z" stroke-linecap="round" />
</g>
<g transform="matrix(1.0588380036 0 0 1.0588380036 67.0630786965 283.7881553735)" id="E6oSLCeXDXUu1UUql_TZP"  >
<path style="stroke:white;stroke-width: 0; stroke-dasharray: none; stroke-linecap: butt; stroke-dashoffset: 0; stroke-linejoin: miter; stroke-miterlimit: 4; stroke: white;fill-rule: nonzero; opacity: 1;filter: url(#SVGID_6);"  transform=" translate(-0.0000087485, -0.0000047338)" d="M 1.48939 -11.21418 L 15.11078 -17.4338 L 20.77093 -6.354500000000002 C 20.77093 -6.354500000000002 12.25679 2.5874499999999987 7.985530000000001 6.9159099999999984 L 7.985530000000001 6.9159099999999984 C 6.934550000000001 7.980969999999998 5.3565700000000005 8.330499999999999 3.954130000000001 7.8088799999999985 C 0.9776000000000011 6.701799999999999 -4.48856 4.586379999999998 -5.126289999999999 4.621819999999999 C -5.92822 4.666389999999999 -6.397549999999999 4.952139999999999 -6.397549999999999 4.952139999999999 C -6.397549999999999 4.952139999999999 -8.348939999999999 6.706339999999999 -10.591159999999999 9.054659999999998 C -13.006039999999999 11.583809999999998 -15.793019999999999 14.776039999999998 -17.85485 16.449199999999998 C -17.95246 16.528409999999997 -18.66384 17.002589999999998 -19.071289999999998 17.261349999999997 L -19.071289999999998 17.261349999999997 C -19.523099999999996 17.548269999999995 -20.115499999999997 17.47067 -20.47817 17.077059999999996 C -20.840829999999997 16.683449999999997 -20.86977 16.086679999999994 -20.546899999999997 15.659829999999996 L -5.2409899999999965 -4.575150000000004 L -5.2409899999999965 -4.575150000000004 C -5.095819999999996 -4.767070000000004 -5.077249999999997 -5.026470000000004 -5.193609999999996 -5.237110000000004 C -5.309969999999996 -5.447750000000004 -5.539439999999996 -5.570140000000004 -5.779179999999996 -5.549430000000004 C -7.475099999999996 -5.402940000000004 -10.022569999999995 -4.321750000000003 -10.855849999999997 -4.635410000000004 C -11.873489999999997 -5.018470000000004 -13.713389999999997 -5.667280000000003 -13.713389999999997 -5.667280000000003 z" stroke-linecap="round" />
<filter id="SVGID_6" y="-25.73598257%" height="151.47196514%" x="-22.40721148%" width="144.81442296%" >
	<feGaussianBlur in="SourceAlpha" stdDeviation="0.5"></feGaussianBlur>
	<feOffset dx="0" dy="1" result="oBlur" ></feOffset>
	<feFlood flood-color="rgb(0,0,0)" flood-opacity="1"/>
	<feComposite in2="oBlur" operator="in" />
	<feMerge>
		<feMergeNode></feMergeNode>
		<feMergeNode in="SourceGraphic"></feMergeNode>
	</feMerge>
</filter>
<path style="stroke: rgb(132,77,182); stroke-width: 0; stroke-dasharray: none; stroke-linecap: butt; stroke-dashoffset: 0; stroke-linejoin: miter; stroke-miterlimit: 4; fill: rgb(229,191,191); fill-rule: nonzero; opacity: 1;"  transform=" translate(-0.0000087485, -0.0000047338)" d="M 1.48939 -11.21418 L 15.11078 -17.4338 L 20.77093 -6.354500000000002 C 20.77093 -6.354500000000002 12.25679 2.5874499999999987 7.985530000000001 6.9159099999999984 L 7.985530000000001 6.9159099999999984 C 6.934550000000001 7.980969999999998 5.3565700000000005 8.330499999999999 3.954130000000001 7.8088799999999985 C 0.9776000000000011 6.701799999999999 -4.48856 4.586379999999998 -5.126289999999999 4.621819999999999 C -5.92822 4.666389999999999 -6.397549999999999 4.952139999999999 -6.397549999999999 4.952139999999999 C -6.397549999999999 4.952139999999999 -8.348939999999999 6.706339999999999 -10.591159999999999 9.054659999999998 C -13.006039999999999 11.583809999999998 -15.793019999999999 14.776039999999998 -17.85485 16.449199999999998 C -17.95246 16.528409999999997 -18.66384 17.002589999999998 -19.071289999999998 17.261349999999997 L -19.071289999999998 17.261349999999997 C -19.523099999999996 17.548269999999995 -20.115499999999997 17.47067 -20.47817 17.077059999999996 C -20.840829999999997 16.683449999999997 -20.86977 16.086679999999994 -20.546899999999997 15.659829999999996 L -5.2409899999999965 -4.575150000000004 L -5.2409899999999965 -4.575150000000004 C -5.095819999999996 -4.767070000000004 -5.077249999999997 -5.026470000000004 -5.193609999999996 -5.237110000000004 C -5.309969999999996 -5.447750000000004 -5.539439999999996 -5.570140000000004 -5.779179999999996 -5.549430000000004 C -7.475099999999996 -5.402940000000004 -10.022569999999995 -4.321750000000003 -10.855849999999997 -4.635410000000004 C -11.873489999999997 -5.018470000000004 -13.713389999999997 -5.667280000000003 -13.713389999999997 -5.667280000000003 z" stroke-linecap="round" />
</g>
<g transform="matrix(0.1530586497 0.2185904055 -0.7769442117 0.5440221938 127.9179547949 242.5561249849)" id="a1cJjsvnOiV_VGdQB_QDg"  >
<path style="stroke: rgb(61,1,45); stroke-width: 0; stroke-dasharray: none; stroke-linecap: butt; stroke-dashoffset: 0; stroke-linejoin: miter; stroke-miterlimit: 4; fill: rgb(31,0,0); fill-rule: nonzero; opacity: 1;"  transform=" translate(-0.00001, 0)" d="M -9.53759 -57.63148 C 23.173519999999996 -57.63148 49.721669999999996 -31.083330000000004 49.721669999999996 1.6277799999999942 C 49.721669999999996 21.869349999999994 27.403819999999996 55.80353999999999 27.403819999999996 55.80353999999999 L -32.375690000000006 57.63147999999999 C -32.375690000000006 57.63147999999999 -49.72165000000001 35.597509999999986 -49.72165000000001 2.8863999999999876 C -49.72165000000001 -29.82471000000001 -42.24869000000001 -57.631470000000014 -9.537580000000013 -57.631470000000014 z" stroke-linecap="round" />
</g>
<g transform="matrix(1 0 0 1 116.6363062461 287.367777319)" id="ElBfi7qHTdIR8cP8wo_KW"  >
<path style="stroke: rgb(0,0,0); stroke-width: 1; stroke-dasharray: none; stroke-linecap: butt; stroke-dashoffset: 0; stroke-linejoin: miter; stroke-miterlimit: 4; fill: rgb(255,255,255); fill-opacity: 0; fill-rule: nonzero; opacity: 1;"  transform=" translate(0, 0)" d="M 0 0" stroke-linecap="round" />
</g>
<g transform="matrix(1 0 0 1 61.8521202484 288.5026941149)" id="hM_RVm12zUqNfxDt8u3wG"  >
<path style="stroke: rgb(0,0,0); stroke-width: 1; stroke-dasharray: none; stroke-linecap: butt; stroke-dashoffset: 0; stroke-linejoin: miter; stroke-miterlimit: 4; fill: rgb(255,255,255); fill-opacity: 0; fill-rule: nonzero; opacity: 1;"  transform=" translate(0, 0)" d="M 0 0" stroke-linecap="round" />
</g>
<g transform="matrix(1 0 0 1 70.1901045668 291.6528081781)" id="j1PtOEC8BBqripVy-YuD2"  >
<path style="stroke: rgb(0,0,0); stroke-width: 1; stroke-dasharray: none; stroke-linecap: butt; stroke-dashoffset: 0; stroke-linejoin: miter; stroke-miterlimit: 4; fill: rgb(255,255,255); fill-opacity: 0; fill-rule: nonzero; opacity: 1;"  transform=" translate(0, 0)" d="M 0 0" stroke-linecap="round" />
</g>
<g transform="matrix(0.999390827 -0.0348994967 0.0073515575 0.2105210639 35.3528494887 451.021921641)" id="lG5YD5QG0ZlQsKT9FgJO3"  >
<path style="stroke: rgb(0,3,105); stroke-width: 0; stroke-dasharray: none; stroke-linecap: butt; stroke-dashoffset: 0; stroke-linejoin: miter; stroke-miterlimit: 4; fill: rgb(223,168,136); fill-rule: nonzero; opacity: 1;"  transform=" translate(0, 0)" d="M 0 -47.61905 C 26.28571 -47.61905 47.61905 -26.28572 47.61905 0 C 47.61905 26.28571 26.28572 47.61905 0 47.61905 C -26.28571 47.61905 -47.61905 26.28572 -47.61905 0 C -47.61905 -26.28571 -26.28572 -47.61905 0 -47.61905 z" stroke-linecap="round" />
</g>
<g transform="matrix(1 0 0 0.7927980061 216.9607740465 140.3066724586)" id="5krC4kzFmiBo-Cl4znH0H"  >
<g style=""   >
		<g transform="matrix(0.2932957899 0 0 0.2932957899 0 0)" id="HY0h59uOkozgsIJmmu7No"  >
<path style="stroke: rgb(104,54,247); stroke-width: 0; stroke-dasharray: none; stroke-linecap: butt; stroke-dashoffset: 0; stroke-linejoin: miter; stroke-miterlimit: 4; fill: rgb(225,63,63); fill-rule: nonzero; opacity: 1;"  transform=" translate(0, 0.000005)" d="M -0.08166 -16.19048 C 26.204050000000002 -16.19048 31.37747 -11.80415 31.37747 -11.80415 C 31.37747 -11.80415 25.20406 16.19047 -1.081660000000003 16.19047 C -27.367370000000005 16.19047 -31.377470000000002 -11.80415 -31.377470000000002 -11.80415 C -31.377470000000002 -11.80415 -26.36737 -16.19048 -0.08166000000000295 -16.19048 z" stroke-linecap="round" />
</g>
		<g transform="matrix(0.2419175807 0 0 0.2419175807 0 0)" id="QannPHahRzQVwzmnpaLZB"  >
<path style="stroke: rgb(104,54,247); stroke-width: 0; stroke-dasharray: none; stroke-linecap: butt; stroke-dashoffset: 0; stroke-linejoin: miter; stroke-miterlimit: 4; fill: rgb(255,255,255); fill-rule: nonzero; opacity: 1;"  transform=" translate(0, 0.000005)" d="M -0.08166 -16.19048 C 26.204050000000002 -16.19048 31.37747 -11.80415 31.37747 -11.80415 C 31.37747 -11.80415 25.20406 16.19047 -1.081660000000003 16.19047 C -27.367370000000005 16.19047 -31.377470000000002 -11.80415 -31.377470000000002 -11.80415 C -31.377470000000002 -11.80415 -26.36737 -16.19048 -0.08166000000000295 -16.19048 z" stroke-linecap="round" />
</g>
</g>
</g>
<g transform="matrix(1 0 0 1 218.1305583761 140.2865455328)" id="uD70KfsKK4G0NLKWAMdgX"  >
<path style="stroke: rgb(0,0,0); stroke-width: 1; stroke-dasharray: none; stroke-linecap: butt; stroke-dashoffset: 0; stroke-linejoin: miter; stroke-miterlimit: 4; fill: rgb(255,255,255); fill-opacity: 0; fill-rule: nonzero; opacity: 1;"  transform=" translate(0, 0)" d="M 0 0" stroke-linecap="round" />
</g>
<g transform="matrix(0.1109123577 0 0 0.1109123577 211.0849510525 143.9351444783)" id="l_piA6qiGhYBHAhyCs26Z"  >
<path style="stroke: rgb(65,127,102); stroke-width: 0; stroke-dasharray: none; stroke-linecap: butt; stroke-dashoffset: 0; stroke-linejoin: miter; stroke-miterlimit: 4; fill: rgb(156,5,5); fill-rule: nonzero; opacity: 1;"  transform=" translate(0, 0.000005)" d="M 0 -16.05081 C 6.37413 -16.05081 11.54734 -1.8706699999999987 11.54734 4.5034600000000005 C 11.54734 10.877590000000001 6.37413 16.050800000000002 0 16.050800000000002 C -6.37413 16.050800000000002 -11.54734 10.877590000000001 -11.54734 4.503460000000002 C -11.54734 -1.8706699999999978 -6.37413 -16.05081 0 -16.05081 z" stroke-linecap="round" />
</g>
<g transform="matrix(0.1109123577 0 0 0.1109123577 213.3549899195 147.0904955903)" id="tnm5n1TChvbgmU-befB-K"  >
<path style="stroke: rgb(65,127,102); stroke-width: 0; stroke-dasharray: none; stroke-linecap: butt; stroke-dashoffset: 0; stroke-linejoin: miter; stroke-miterlimit: 4; fill: rgb(156,5,5); fill-rule: nonzero; opacity: 1;"  transform=" translate(0, 0.000005)" d="M 0 -16.05081 C 6.37413 -16.05081 11.54734 -1.8706699999999987 11.54734 4.5034600000000005 C 11.54734 10.877590000000001 6.37413 16.050800000000002 0 16.050800000000002 C -6.37413 16.050800000000002 -11.54734 10.877590000000001 -11.54734 4.503460000000002 C -11.54734 -1.8706699999999978 -6.37413 -16.05081 0 -16.05081 z" stroke-linecap="round" />
</g>
<g transform="matrix(0.1109123577 0 0 0.1109123577 216.8498156715 144.0713518843)" id="uJviiAT6rWtGleWJGTx-9"  >
<path style="stroke: rgb(65,127,102); stroke-width: 0; stroke-dasharray: none; stroke-linecap: butt; stroke-dashoffset: 0; stroke-linejoin: miter; stroke-miterlimit: 4; fill: rgb(156,5,5); fill-rule: nonzero; opacity: 1;"  transform=" translate(0, 0.000005)" d="M 0 -16.05081 C 6.37413 -16.05081 11.54734 -1.8706699999999987 11.54734 4.5034600000000005 C 11.54734 10.877590000000001 6.37413 16.050800000000002 0 16.050800000000002 C -6.37413 16.050800000000002 -11.54734 10.877590000000001 -11.54734 4.503460000000002 C -11.54734 -1.8706699999999978 -6.37413 -16.05081 0 -16.05081 z" stroke-linecap="round" />
</g>
<g transform="matrix(0.1109123577 0 0 0.1109123577 223.5436647344 142.0869050842)" id="j2Cbfplonu2C5KfJKlu6A"  >
<path style="stroke: rgb(65,127,102); stroke-width: 0; stroke-dasharray: none; stroke-linecap: butt; stroke-dashoffset: 0; stroke-linejoin: miter; stroke-miterlimit: 4; fill: rgb(156,5,5); fill-rule: nonzero; opacity: 1;"  transform=" translate(0, 0.000005)" d="M 0 -16.05081 C 6.37413 -16.05081 11.54734 -1.8706699999999987 11.54734 4.5034600000000005 C 11.54734 10.877590000000001 6.37413 16.050800000000002 0 16.050800000000002 C -6.37413 16.050800000000002 -11.54734 10.877590000000001 -11.54734 4.503460000000002 C -11.54734 -1.8706699999999978 -6.37413 -16.05081 0 -16.05081 z" stroke-linecap="round" />
</g>
<g transform="matrix(0.1109123577 0 0 0.1109123577 219.4113010807 141.5667781583)" id="OgFXp1jrKG6YM_garLCnL"  >
<path style="stroke: rgb(65,127,102); stroke-width: 0; stroke-dasharray: none; stroke-linecap: butt; stroke-dashoffset: 0; stroke-linejoin: miter; stroke-miterlimit: 4; fill: rgb(156,5,5); fill-rule: nonzero; opacity: 1;"  transform=" translate(0, 0.000005)" d="M 0 -16.05081 C 6.37413 -16.05081 11.54734 -1.8706699999999987 11.54734 4.5034600000000005 C 11.54734 10.877590000000001 6.37413 16.050800000000002 0 16.050800000000002 C -6.37413 16.050800000000002 -11.54734 10.877590000000001 -11.54734 4.503460000000002 C -11.54734 -1.8706699999999978 -6.37413 -16.05081 0 -16.05081 z" stroke-linecap="round" />
</g>
<g transform="matrix(1 0 0 1 216.8592337779 140.2495714258)" id="haTwnrLx6desZOO3XEX-5"  >
<path style="stroke: rgb(0,0,0); stroke-width: 1; stroke-dasharray: none; stroke-linecap: butt; stroke-dashoffset: 0; stroke-linejoin: miter; stroke-miterlimit: 4; fill: rgb(255,255,255); fill-opacity: 0; fill-rule: nonzero; opacity: 1;"  transform=" translate(0.000005, 0)" d="M -4.78499 0.0571 L -3.50425 -2.04155 L -2.22351 2.04155 L -0.00943000000000005 -2.04155 L 1.27131 2.04155 L 3.8327999999999998 -2.04155 L 4.78498 0.5369700000000002" stroke-linecap="round" />
</g>
</svg>